<?xml version="1.0" encoding="utf-8"?>
<!-- Generator: Adobe Illustrator 24.0.2, SVG Export Plug-In . SVG Version: 6.00 Build 0)  -->
<svg version="1.1" id="Camada_1" xmlns="http://www.w3.org/2000/svg" xmlns:xlink="http://www.w3.org/1999/xlink" x="0px" y="0px"
	 viewBox="0 0 611.2 507" style="enable-background:new 0 0 611.2 507;" xml:space="preserve">
<style type="text/css">
	.st0{fill:url(#SVGID_1_);}
	.st1{fill:url(#SVGID_2_);}
</style>
<g>
	<linearGradient id="SVGID_1_" gradientUnits="userSpaceOnUse" x1="292.5135" y1="-77.454" x2="301.5135" y2="256.5461">
		<stop  offset="0" style="stop-color:#FF1454"/>
		<stop  offset="0.7888" style="stop-color:#771993"/>
		<stop  offset="1" style="stop-color:#521BA4"/>
	</linearGradient>
	<polygon class="st0" points="186.6,0.1 402.4,125.9 377.7,165.3 436.9,167 391.3,203.6 465.3,316.4 530.6,506.8 469.7,506.8 
		398.3,420.1 283.2,491.7 298.5,506.8 239.3,506.8 249.5,421.7 141,506.9 110.2,506.9 127.4,413.2 80.6,309.6 138.5,389.7 
		254.7,297.1 283.2,352.7 263.1,290.4 256.9,258.9 181.8,232.3 173.1,206 314.8,132.1 	"/>
	<linearGradient id="SVGID_2_" gradientUnits="userSpaceOnUse" x1="198.4915" y1="-74.9204" x2="207.4915" y2="259.0796">
		<stop  offset="0" style="stop-color:#FF1454"/>
		<stop  offset="0.7888" style="stop-color:#771993"/>
		<stop  offset="1" style="stop-color:#521BA4"/>
	</linearGradient>
	<polygon class="st1" points="140.2,36.3 265.9,152.2 235.5,167 	"/>
</g>
</svg>
