<?xml version="1.0" encoding="utf-8"?>
<!-- Generator: Adobe Illustrator 24.1.1, SVG Export Plug-In . SVG Version: 6.00 Build 0)  -->
<svg version="1.1" id="Camada_1" xmlns="http://www.w3.org/2000/svg" xmlns:xlink="http://www.w3.org/1999/xlink" x="0px" y="0px"
	 viewBox="0 0 611.15 506.95" style="enable-background:new 0 0 611.15 506.95;" xml:space="preserve">
<style type="text/css">
	.st0{fill-rule:evenodd;clip-rule:evenodd;fill:#1A1A1A;}
	.st1{fill-rule:evenodd;clip-rule:evenodd;fill:#F39C12;}
	.st2{fill-rule:evenodd;clip-rule:evenodd;fill:#D87400;}
	.st3{fill-rule:evenodd;clip-rule:evenodd;fill:#FFCF4B;}
</style>
<g>
	<path class="st0" d="M249.82,427.14c6.81-6.25,12.13-13.28,16.27-20.12c-10.97-3.25-21.88-6.83-32.75-10.3
		c-4.85,7.33-11.03,14.07-17.92,20.09c-0.43,4.88-1.08,8.04-1.08,8.04c20.42,17.67,22.69,42.23,22.32,56.71
		c8.23,4.7,13.33,10.56,15.87,17.34h46.9C267.23,476.52,249.82,427.14,249.82,427.14z"/>
	<path class="st0" d="M210.18,99.99l14.35-12.07c-5.14-1.42-25.33-8.22-25.66-27.97C198.88,59.94,187.87,89.05,210.18,99.99z"/>
	<path class="st0" d="M482.1,303.8c0,0,2.84,26.07,1.07,36.15c-1.78,10.08-14.17,12.07-14.17,12.07
		c-4.69,11.94-4.68,38.09-1.17,47.81c0,0,36.84-20.37,41.59-37.56c4.74-17.2,23.25-106.8,23.25-106.8l-38.9-13.02
		C479.54,114.96,352.82,78.47,352.82,78.47C377.01,48.4,374.75,17.99,350.27,0c7.27,28.32-19.9,48.01-42.9,55.8l-34.08,0.44
		l-74.7,62.85c5.63,19.28,24.01,40.03,24.01,40.03c31.23-4.46,47.7,23.51,76.63,20.01c1.65,5.69,1.99,13.76,1.01,23.5
		c-79.06,21.31-123.25,29.06-190.65,78.97c-21.35,15.81-43.36,30.25-60.74,26.39c-14.53-3.22-20.08-17.4-14.82-32.82
		c9.17-26.9,49.58-50.19,74.81-58.13c22.6,11.47,46.48-5.27,50.71-30.97c-17.43,17.69-43.3-11.79-54.03,18.95
		c-31.59,11.3-68.42,32.04-84.47,54.89c-16.54,23.54-13.3,52.7,4.79,66.59c20.52,15.76,67.09,10.04,90.19,2.13
		c18.72,10.82,32.25,57.62,11.42,96.52c16.17,9.64,35.5,32.52,41.05,60.43c6.45,3.45,10.25,8.67,12.5,13.32h46.66
		c-20.42-16.5-37.35-38.53-50.27-69.34c28.11-13.69,44.38-31.45,51.21-45.07c46.73,18.24,82.59,28.23,165.07,19.36l73.49,52.49
		c13.17,12.35,16.92,28.72,12.55,42.56h59.4c-5.86-37.57-72.36-62.03-89.23-134.55C465.65,349,476.06,321.95,482.1,303.8z"/>
	<path class="st1" d="M498.73,301.99c0.74,6.76,1.6,15.87,1.79,24.48c1.43-6.53,2.83-13.05,4.23-19.58
		c2.87-13.42,5.71-26.85,8.51-40.29l-19.05-6.37L498.73,301.99z"/>
	<path class="st1" d="M408.24,126.13c-29.45-22.1-52.68-32.95-85.8-38.99c17.46-11.74,27.51-27.4,31.31-42.94
		c-21.9,29.42-42.25,28.28-74.25,28.69l-48.62,40.9l10.32,2.44c0,0,1.08,8.03-0.89,18.43c24.32-7.94,43.2,5.09,62.84,5.11
		c12.1,0.01,24.82-5.22,32.07-21.53c1.23,14.8-2.64,33.84-10.92,42.12c25.57,11.08,48.25,36.07,48.83,71.55
		c-6.46-12.22-13.76-20.5-21.51-25.58c11.17,17.33,13.52,38.15,10.96,55.89c-11.1-22.19-30.87-28.69-45.8-33.16
		c-22.71-6.79-46.87-0.31-82.58,10.45c-24.19,7.29-50.03,15.4-72.77,26.43c-35.67,17.31-48.68,40.75-98,54.8
		c19.03-0.35,36.32-4.52,62.57-14.27c16.76,10.03,26.4,33.99,30.5,52.1c3.93,17.39,4.6,35.96,1.33,53.67h0
		c58.45-41.41,62.82-101.35,62.82-101.35c3.17,9.17,4.58,25.74,4.58,25.74c51.46,5.99,92.35-2.46,92.35-2.46
		c-4.22-11.99-2.47-33.14-2.47-33.14s31.26,54.57,121.74,86.86c-5.02-28.76-17.32-64.96-29.73-88.62
		c8.64,4.23,22.25,14.9,30.38,28.36c25.28-40.18,48.13-76.62,29.64-125.25C455.63,172.17,435.57,146.64,408.24,126.13z
		 M284.47,95.94l-17.4,5.37l14.16-13.57l12.4,5.78L284.47,95.94z"/>
	<path class="st2" d="M398.32,223.27c-6.7-64.16-56.22-74.2-56.22-74.2c1.06-28.73-10.23-41.25-10.23-41.25
		c3.35,35.08-51.82,16.92-51.82,16.92c4.23-2.12,17.8-4.76,17.8-4.76c-26.25-4.76-47.15,2.22-56.51,6.34
		c-0.16,2.49-0.48,5.32-1.05,8.34c24.32-7.94,43.2,5.09,62.84,5.11c12.1,0.01,24.82-5.22,32.07-21.53
		c1.23,14.8-2.64,33.84-10.92,42.12c25.57,11.08,48.25,36.07,48.83,71.55c-6.46-12.22-13.76-20.5-21.51-25.58
		c20.26,24.84,22.92,72.27,22.92,72.27c16.92-36.83,5.46-80.37,5.46-80.37C389.86,206.36,398.32,223.27,398.32,223.27z"/>
	<path class="st3" d="M234.2,239.53c-24.19,7.29-50.03,15.4-72.77,26.43c-35.67,17.31-48.68,40.75-98,54.8
		c54.98-8.77,82.32-44.33,135.83-59.25c-0.53,1.23-6.52,17.98-6.52,17.98c32.47-33.17,90.73-52.21,114.82-52.43
		C287.39,224.1,265.13,230.21,234.2,239.53z"/>
	<path class="st2" d="M416.76,358.8c0,0-80.54-17.8-108.75-87.95c0,0-4.23,25.03-2.82,35.96c0,0-50.76,9.87-76.85,8.11
		c0,0-4.93-16.92-13.04-27.14c0,0-7.76,48.29-45.12,92.71c0,0,2.97-36.55-37.51-68.97c12.69,11.65,20.3,31.52,23.82,47.08
		c3.93,17.39,4.6,35.96,1.33,53.67h0c58.45-41.41,62.82-101.35,62.82-101.35c3.17,9.17,4.58,25.74,4.58,25.74
		c51.46,5.99,92.35-2.46,92.35-2.46c-4.22-11.99-2.47-33.14-2.47-33.14s31.26,54.57,121.74,86.86
		c-5.02-28.76-17.32-64.96-29.73-88.62C407.11,299.29,417.02,337.73,416.76,358.8z"/>
	<path class="st3" d="M504.26,273.61l-3.74,52.86c1.43-6.53,2.83-13.05,4.23-19.58c2.87-13.42,5.71-26.85,8.51-40.29l-19.05-6.37
		L504.26,273.61z"/>
	<path class="st3" d="M408.24,126.13c-29.45-22.1-52.68-32.95-85.8-38.99c12.52,7.85,23.28,17.18,25.22,35.51
		c0,0,72.71,29.35,97.39,89.62c-2.65-17.63-9.87-35.07-19.39-50.93c0,0,70.75,56.73,11.84,166.31
		c31.98-35.25,48.13-76.62,29.64-125.25C455.63,172.17,435.57,146.64,408.24,126.13z"/>
	<path class="st3" d="M279.49,72.9l-48.62,40.9l32.84-8.6l35.82-9.78l-10.66-14.8c16.88,1.46,56.95-9.56,64.87-36.41
		C331.85,73.63,311.49,72.49,279.49,72.9z M293.63,93.52l-9.16,2.42l-17.4,5.37l14.16-13.57L293.63,93.52z"/>
	<path class="st0" d="M0,501.39c0,3.06,136.81,5.55,305.58,5.55c168.77,0,305.58-2.49,305.58-5.55c0-3.07-136.81-5.56-305.58-5.56
		C136.81,495.83,0,498.32,0,501.39z"/>
</g>
</svg>
