<?xml version="1.0" encoding="utf-8"?>
<!-- Generator: Adobe Illustrator 24.0.2, SVG Export Plug-In . SVG Version: 6.00 Build 0)  -->
<svg version="1.1" id="Camada_1" xmlns="http://www.w3.org/2000/svg" xmlns:xlink="http://www.w3.org/1999/xlink" x="0px" y="0px"
	 viewBox="0 0 1600 1181.1" style="enable-background:new 0 0 1600 1181.1;" xml:space="preserve">
<style type="text/css">
	.st0{enable-background:new    ;}
	.st1{fill:#FFFFFF;}
	.st2{fill:#5428A7;}
	.st3{fill:#FFFFFF;stroke:#5428A7;stroke-width:7;stroke-linecap:round;stroke-linejoin:round;stroke-miterlimit:10;}
</style>
<g>
	<g>
		<g class="st0">
			<g>
				<path class="st1" d="M202.2,1139.2c-1.4,0-2.7-0.9-3.2-2.2l-9.4-23.4h-50.9l-9.4,23.4c-0.5,1.3-1.8,2.2-3.2,2.2H88
					c-1.2,0-2.3-0.6-2.9-1.6s-0.7-2.2-0.3-3.3l58.1-131.5c0.6-1.3,1.8-2.1,3.2-2.1h36.6c1.4,0,2.6,0.8,3.2,2.1l58.2,131.5
					c0.5,1.1,0.4,2.3-0.3,3.3c-0.6,1-1.7,1.6-2.9,1.6H202.2z M175.8,1079.3l-11.7-29.2l-11.7,29.2H175.8z"/>
				<path class="st2" d="M182.7,1004.2l58.2,131.5h-38.7l-10.3-25.6h-55.6l-10.3,25.6H88l58-131.5H182.7 M147.2,1082.8H181
					l-16.9-42.1L147.2,1082.8 M182.7,997.2h-36.6c-2.8,0-5.3,1.6-6.4,4.2l-58.1,131.5c-1,2.2-0.8,4.7,0.5,6.6c1.3,2,3.5,3.2,5.9,3.2
					H126c2.9,0,5.4-1.7,6.5-4.4l8.6-21.2h46.2l8.6,21.2c1.1,2.6,3.6,4.4,6.5,4.4h38.7c2.4,0,4.6-1.2,5.9-3.2c1.3-2,1.5-4.5,0.5-6.7
					l-58.2-131.5C188,998.9,185.5,997.2,182.7,997.2L182.7,997.2z M157.5,1075.8l6.6-16.3l6.6,16.3H157.5L157.5,1075.8z"/>
			</g>
			<g>
				<path class="st1" d="M384.6,1175.7c-1.9,0-3.5-1.6-3.5-3.5v-138.3c0-1.9,1.6-3.5,3.5-3.5h34c1.9,0,3.5,1.6,3.5,3.5v2.2
					c6.9-4.9,15.8-7.4,26.6-7.4c9.9,0,18.9,2.4,27,7c8.1,4.6,14.6,11.3,19.4,19.7c4.7,8.5,7.1,18.4,7.1,29.4c0,11.1-2.4,21-7.1,29.4
					c-4.7,8.5-11.2,15.1-19.3,19.7c-8.1,4.6-17.2,6.9-27,6.9c-9.7,0-18.1-2.3-24.9-6.8v38c0,1.9-1.6,3.5-3.5,3.5H384.6z
					 M441.2,1064.1c-5.3,0-9.5,1.8-12.8,5.4c-3.4,3.7-5.1,8.7-5.1,15.4s1.7,11.7,5.1,15.4c3.3,3.6,7.5,5.4,12.8,5.4
					c5.3,0,9.5-1.8,12.8-5.4c3.4-3.7,5.1-8.7,5.1-15.4s-1.7-11.7-5.1-15.4C450.7,1065.9,446.5,1064.1,441.2,1064.1z"/>
				<path class="st2" d="M448.7,1032.2c9.3,0,17.7,2.2,25.3,6.5s13.6,10.5,18,18.4c4.4,8,6.7,17.2,6.7,27.7s-2.2,19.8-6.7,27.7
					c-4.5,8-10.5,14.1-18,18.4c-7.6,4.3-16,6.5-25.3,6.5c-11.9,0-21.4-3.6-28.4-10.7v45.5h-35.7v-138.3h34v10.1
					C425.3,1036.2,435.3,1032.2,448.7,1032.2 M441.2,1109.1c6.2,0,11.4-2.2,15.4-6.5c4-4.3,6-10.2,6-17.8s-2-13.4-6-17.8
					s-9.1-6.5-15.4-6.5c-6.3,0-11.4,2.2-15.4,6.5c-4,4.3-6,10.2-6,17.8s2,13.4,6,17.8S434.9,1109.1,441.2,1109.1
					C441.2,1109.1,441.2,1109.1,441.2,1109.1 M448.7,1025.2C448.7,1025.2,448.7,1025.2,448.7,1025.2c-9.3,0-17.4,1.7-24,5.2
					c-1.2-2.1-3.5-3.5-6.1-3.5h-34c-3.9,0-7,3.1-7,7v138.3c0,3.9,3.1,7,7,7h35.7c3.9,0,7-3.1,7-7v-32.1c6.2,2.9,13.4,4.3,21.4,4.3
					c10.5,0,20.1-2.5,28.7-7.4c8.7-4.9,15.6-12,20.7-21.1c5-9,7.6-19.4,7.6-31.1c0-11.7-2.5-22.1-7.6-31.1
					c-5.1-9.1-12-16.1-20.7-21.1C468.8,1027.7,459.2,1025.2,448.7,1025.2L448.7,1025.2z M441.2,1109.1l0-7c-4.3,0-7.6-1.3-10.3-4.2
					c-2.8-3-4.1-7.2-4.1-13s1.4-10,4.1-13c2.7-2.9,5.9-4.2,10.3-4.2c4.3,0,7.6,1.3,10.3,4.2c2.8,3,4.1,7.2,4.1,13s-1.4,10-4.1,13
					c-2.7,2.9-5.9,4.2-10.2,4.2V1109.1L441.2,1109.1z"/>
			</g>
			<g>
				<path class="st1" d="M650.1,1175.7c-1.9,0-3.5-1.6-3.5-3.5v-138.3c0-1.9,1.6-3.5,3.5-3.5h34c1.9,0,3.5,1.6,3.5,3.5v2.2
					c6.9-4.9,15.8-7.4,26.6-7.4c9.9,0,18.9,2.4,27,7c8.1,4.6,14.6,11.3,19.4,19.7c4.7,8.5,7.1,18.4,7.1,29.4c0,11.1-2.4,21-7.1,29.4
					c-4.7,8.5-11.2,15.1-19.3,19.7c-8.1,4.6-17.2,6.9-27,6.9c-9.7,0-18.1-2.3-24.9-6.8v38c0,1.9-1.6,3.5-3.5,3.5H650.1z
					 M706.6,1064.1c-5.3,0-9.5,1.8-12.8,5.4c-3.4,3.7-5.1,8.7-5.1,15.4s1.7,11.7,5.1,15.4c3.3,3.6,7.5,5.4,12.8,5.4
					c5.3,0,9.5-1.8,12.8-5.4c3.4-3.7,5.1-8.7,5.1-15.4s-1.7-11.7-5.1-15.4C716.1,1065.9,711.9,1064.1,706.6,1064.1z"/>
				<path class="st2" d="M714.1,1032.2c9.3,0,17.7,2.2,25.3,6.5c7.6,4.3,13.6,10.5,18,18.4c4.4,8,6.7,17.2,6.7,27.7
					s-2.2,19.8-6.7,27.7c-4.5,8-10.5,14.1-18,18.4c-7.6,4.3-16,6.5-25.3,6.5c-11.9,0-21.3-3.6-28.4-10.7v45.5h-35.7v-138.3h34v10.1
					C690.7,1036.2,700.7,1032.2,714.1,1032.2 M706.7,1109.1c6.2,0,11.4-2.2,15.4-6.5c4-4.3,6-10.2,6-17.8s-2-13.4-6-17.8
					s-9.1-6.5-15.4-6.5s-11.4,2.2-15.4,6.5c-4,4.3-6,10.2-6,17.8s2,13.4,6,17.8S700.4,1109.1,706.7,1109.1
					C706.7,1109.1,706.7,1109.1,706.7,1109.1 M714.2,1025.2C714.2,1025.2,714.2,1025.2,714.2,1025.2c-9.3,0-17.4,1.7-24,5.2
					c-1.2-2.1-3.5-3.5-6.1-3.5h-34c-3.9,0-7,3.1-7,7v138.3c0,3.9,3.1,7,7,7h35.7c3.9,0,7-3.1,7-7v-32.1c6.2,2.9,13.4,4.3,21.4,4.3
					c10.5,0,20.1-2.5,28.7-7.4c8.7-4.9,15.6-12,20.7-21.1c5-9,7.6-19.4,7.6-31.1c0-11.7-2.5-22.1-7.6-31.1
					c-5.1-9.1-12-16.1-20.7-21.1C734.3,1027.7,724.6,1025.2,714.2,1025.2L714.2,1025.2z M706.7,1109.1l0-7c-4.3,0-7.6-1.3-10.3-4.2
					c-2.8-3-4.1-7.2-4.1-13s1.4-10,4.1-13c2.7-2.9,5.9-4.2,10.3-4.2c4.3,0,7.6,1.3,10.3,4.2c2.8,3,4.1,7.2,4.1,13s-1.4,10-4.1,13
					c-2.7,2.9-5.9,4.2-10.2,4.2V1109.1L706.7,1109.1z"/>
			</g>
			<g>
				<path class="st1" d="M915.5,1139.2c-1.9,0-3.5-1.6-3.5-3.5v-101.8c0-1.9,1.6-3.5,3.5-3.5h35.7c1.9,0,3.5,1.6,3.5,3.5v101.8
					c0,1.9-1.6,3.5-3.5,3.5H915.5z M933.3,1026.1c-7.4,0-13.4-2.1-18.1-6.3c-4.7-4.3-7.2-9.7-7.2-16.1c0-6.4,2.4-11.8,7.2-16.1
					c4.7-4.2,10.8-6.4,18.1-6.4c7.3,0,13.4,2,18.1,6c4.8,4.1,7.2,9.5,7.2,15.9c0,6.6-2.4,12.2-7.1,16.6
					C946.9,1024,940.8,1026.1,933.3,1026.1L933.3,1026.1z"/>
				<path class="st2" d="M933.4,984.7c6.5,0,11.8,1.7,15.8,5.2s6,7.9,6,13.2c0,5.6-2,10.3-6,14s-9.3,5.5-15.8,5.5c0,0,0,0-0.1,0
					c-6.5,0-11.7-1.8-15.7-5.4c-4-3.6-6-8.1-6-13.5c0-5.4,2-9.9,6-13.5C921.6,986.5,926.9,984.7,933.4,984.7 M951.2,1033.9v101.8
					h-35.7v-101.8H951.2 M933.4,977.7c-8.3,0-15.2,2.4-20.5,7.3c-5.4,4.9-8.3,11.4-8.3,18.7c0,7.3,2.9,13.8,8.3,18.7
					c2.1,1.9,4.4,3.4,6.9,4.5h-4.3c-3.9,0-7,3.1-7,7v101.8c0,3.9,3.1,7,7,7h35.7c3.9,0,7-3.1,7-7v-101.8c0-3.9-3.1-7-7-7h-4.3
					c2.6-1.2,4.9-2.7,7-4.7c5.5-5.1,8.3-11.5,8.3-19.1c0-7.4-2.9-13.8-8.4-18.5C948.4,980,941.6,977.7,933.4,977.7L933.4,977.7z"/>
			</g>
			<g>
				<path class="st1" d="M1161.3,1140.9c-11.8,0-22.5-2.4-31.8-7.1c-9.4-4.8-16.9-11.5-22.2-20.1c-5.3-8.5-7.9-18.3-7.9-29.1
					c0-10.8,2.7-20.5,7.9-29c5.3-8.5,12.7-15.2,22.2-19.9c9.4-4.7,20.1-7,31.8-7c12.1,0,22.8,2.7,31.6,7.9
					c9,5.3,15.5,12.8,19.3,22.3c0.7,1.7,0,3.6-1.7,4.4l-27.6,14.1c-0.5,0.3-1,0.4-1.6,0.4c-0.4,0-0.7-0.1-1.1-0.2
					c-0.9-0.3-1.6-0.9-2-1.7c-4-7.9-9.6-11.8-17.2-11.8c-5.5,0-9.8,1.7-13.4,5.3c-3.6,3.6-5.3,8.6-5.3,15.2c0,6.8,1.7,11.8,5.3,15.5
					c3.5,3.6,7.9,5.4,13.4,5.4c7.5,0,13.1-3.9,17.2-11.8c0.4-0.8,1.2-1.5,2-1.7c0.4-0.1,0.7-0.2,1.1-0.2c0.5,0,1.1,0.1,1.6,0.4
					l27.6,14.1c1.6,0.8,2.3,2.7,1.7,4.4c-3.8,9.5-10.3,17-19.3,22.3C1184,1138.3,1173.4,1140.9,1161.3,1140.9z"/>
				<path class="st2" d="M1161.3,1032.2c11.5,0,21.5,2.5,29.9,7.4c8.4,4.9,14.3,11.8,17.8,20.6l-27.6,14.1
					c-4.6-9.1-11.4-13.7-20.3-13.7c-6.4,0-11.7,2.1-15.9,6.4c-4.2,4.3-6.3,10.1-6.3,17.7c0,7.6,2.1,13.6,6.3,17.9
					c4.2,4.3,9.5,6.5,15.9,6.5c8.9,0,15.7-4.6,20.3-13.7l27.6,14.1c-3.5,8.8-9.5,15.6-17.8,20.6c-8.4,4.9-18.3,7.4-29.9,7.4
					c-11.3,0-21.4-2.2-30.3-6.8s-15.8-10.8-20.8-18.8c-4.9-8-7.4-17.1-7.4-27.2s2.5-19.2,7.4-27.2c4.9-7.9,11.9-14.2,20.8-18.6
					C1139.9,1034.5,1150,1032.2,1161.3,1032.2 M1161.3,1025.2c-12.3,0-23.5,2.5-33.4,7.4c-10,5-18,12.1-23.6,21.2
					c-5.6,9-8.5,19.4-8.5,30.8c0,11.4,2.8,21.8,8.5,30.9c5.6,9.1,13.5,16.3,23.5,21.4c9.8,5,21.1,7.5,33.4,7.5
					c12.7,0,24-2.8,33.4-8.4c9.7-5.7,16.7-13.8,20.8-24c1.3-3.4-0.1-7.2-3.3-8.8l-27.6-14.1c-1-0.5-2.1-0.8-3.2-0.8
					c-0.7,0-1.5,0.1-2.2,0.3c-1.8,0.6-3.2,1.8-4.1,3.5c-4.4,8.8-9.8,9.9-14,9.9c-4.5,0-8-1.4-10.9-4.4c-2.9-3-4.3-7.3-4.3-13.1
					c0-5.7,1.4-9.8,4.3-12.7c2.9-2.9,6.3-4.3,10.9-4.3c3.9,0,9.6,1,14,9.9c0.8,1.7,2.3,2.9,4.1,3.5c0.7,0.2,1.4,0.3,2.2,0.3
					c1.1,0,2.2-0.3,3.2-0.8l27.6-14.1c3.2-1.6,4.7-5.5,3.3-8.8c-4.1-10.2-11.1-18.3-20.8-24C1185.2,1028,1174,1025.2,1161.3,1025.2
					L1161.3,1025.2z"/>
			</g>
		</g>
		<g class="st0">
			<g>
				<path class="st1" d="M1461.3,1140.9c-12.4,0-23.5-2.4-32.9-7.1c-9.6-4.8-17.1-11.5-22.4-20.1c-5.3-8.5-7.9-18.3-7.9-29.1
					c0-10.6,2.6-20.3,7.7-28.8c5.1-8.5,12.3-15.2,21.4-20c9-4.8,19.2-7.2,30.4-7.2c10.6,0,20.5,2.2,29.2,6.7
					c8.8,4.5,15.9,11,21,19.5c5.1,8.5,7.7,18.6,7.7,30c0,0.3,0,1.1-0.6,9.1c-0.1,1.8-1.7,3.3-3.5,3.3h-68.8c1.3,2.3,3.1,4.2,5.4,5.7
					c3.7,2.4,8.5,3.7,14.3,3.7c4.4,0,8.3-0.6,11.4-1.8c3.2-1.2,6.5-3.3,9.8-6.1c0.7-0.6,1.5-0.8,2.3-0.8c0.9,0,1.8,0.4,2.5,1.1
					l18.8,19.5c1.3,1.3,1.3,3.4,0.1,4.8C1496.7,1135,1481.2,1140.9,1461.3,1140.9z M1473.9,1071.6c-1.1-2.7-2.6-4.8-4.7-6.6
					c-3.1-2.6-6.9-3.9-11.5-3.9c-4.7,0-8.5,1.3-11.6,3.9c-2.1,1.8-3.6,3.9-4.7,6.6H1473.9z"/>
				<path class="st2" d="M1457.5,1032.2c10.1,0,19.3,2.1,27.6,6.3c8.3,4.2,14.8,10.3,19.6,18.2s7.2,17.4,7.2,28.3
					c0,0.2-0.2,3.2-0.6,8.8h-74c1.5,5.3,4.4,9.3,8.7,12.1s9.7,4.2,16.3,4.2c4.9,0,9.1-0.7,12.7-2.1c3.6-1.4,7.2-3.6,10.8-6.8
					l18.8,19.5c-9.9,11-24.4,16.5-43.4,16.5c-11.9,0-22.4-2.3-31.4-6.8c-9-4.5-16-10.8-20.9-18.8c-4.9-8-7.4-17.1-7.4-27.2
					c0-10,2.4-19,7.2-27c4.8-7.9,11.5-14.2,20-18.7C1437.3,1034.5,1446.9,1032.2,1457.5,1032.2 M1436.8,1075.1h41.7
					c-1-5.4-3.3-9.6-7-12.8c-3.7-3.1-8.3-4.7-13.8-4.7c-5.5,0-10.1,1.6-13.8,4.7C1440.2,1065.4,1437.8,1069.7,1436.8,1075.1
					 M1457.5,1025.2c-11.8,0-22.5,2.5-32,7.6c-9.6,5.1-17.3,12.2-22.7,21.2c-5.5,9-8.2,19.3-8.2,30.6c0,11.4,2.8,21.8,8.5,30.9
					c5.6,9.1,13.6,16.3,23.8,21.4c9.9,5,21.5,7.5,34.5,7.5c21,0,37.4-6.3,48.6-18.9c2.5-2.7,2.4-6.9-0.2-9.5l-14.6-15.2h16.3
					c3.7,0,6.7-2.9,7-6.5c0.5-8,0.6-8.9,0.6-9.4c0-12.1-2.8-22.8-8.2-31.8c-5.5-9-13-16.1-22.4-20.8
					C1479.1,1027.6,1468.7,1025.2,1457.5,1025.2L1457.5,1025.2z M1447.9,1068.1c0.2-0.1,0.3-0.3,0.5-0.4c2.4-2.1,5.5-3,9.3-3
					c3.8,0,6.9,1,9.3,3c0.2,0.1,0.3,0.3,0.5,0.4H1447.9L1447.9,1068.1z M1451.2,1100.8h23c-0.6,0.3-1.1,0.5-1.7,0.8
					c-2.7,1.1-6.2,1.6-10.2,1.6C1457.9,1103.2,1454.2,1102.4,1451.2,1100.8L1451.2,1100.8z"/>
			</g>
		</g>
		<path class="st3" d="M806.7,50.5c59.9,0,118,11.7,172.7,34.9c52.8,22.3,100.3,54.3,141.1,95.1s72.8,88.2,95.1,141.1
			c23.1,54.7,34.9,112.8,34.9,172.7c0,65.1-13.8,127.9-40.9,186.4c-18.9,40.8-43.5,78-73.5,111L1012.5,546l-37.2-74l-37.2,74
			l-1.2,2.3L836.2,347.8l-37.2-74l-37.2,74L626.3,617.5l-30.7-61l-37.2,74l-81.1,161.4c-29.2-32.2-53.4-68.4-72.1-108.1
			C378.2,626.4,363.9,565,363,501.2c-0.9-60.5,10-119.1,32.4-174.5c21.7-53.4,53.2-101.5,93.6-142.9c40.4-41.3,87.6-73.9,140.5-96.8
			c54.7-23.7,113-36,173.4-36.5C804.1,50.5,805.4,50.5,806.7,50.5 M806.7,8.9c-1.4,0-2.8,0-4.2,0
			c-270.1,2.3-485.3,222.8-481.1,492.9c2.2,142.6,65.9,270.4,165.8,357.8c0.4,0.3,0.8,0.5,1.2,0.5c0.7,0,1.4-0.4,1.7-1l105.5-210
			l30.7,61L799,366.5L937,641l38.3-76.3l148,294.4c0.3,0.7,1,1,1.7,1c0.4,0,0.9-0.2,1.2-0.5c101.6-89,165.8-219.7,165.8-365.4
			C1292,226.2,1074.7,8.9,806.7,8.9L806.7,8.9z"/>
	</g>
</g>
</svg>
