<?xml version="1.0" encoding="utf-8"?>
<!-- Generator: Adobe Illustrator 24.0.2, SVG Export Plug-In . SVG Version: 6.00 Build 0)  -->
<svg version="1.1" id="Camada_1" xmlns="http://www.w3.org/2000/svg" xmlns:xlink="http://www.w3.org/1999/xlink" x="0px" y="0px"
	 viewBox="0 0 1600 1181.1" style="enable-background:new 0 0 1600 1181.1;" xml:space="preserve">
<style type="text/css">
	.st0{enable-background:new    ;}
	.st1{fill:#5428A7;}
</style>
<g>
	<g>
		<g class="st0">
			<g>
				<path class="st1" d="M191.9,1110.2h-55.6l-10.3,25.6H88l58-131.5h36.6l58.2,131.5h-38.7L191.9,1110.2z M181,1082.8l-16.9-42.1
					l-16.9,42.1H181z"/>
			</g>
			<g>
				<path class="st1" d="M474,1038.7c7.6,4.3,13.6,10.5,18,18.4c4.4,8,6.7,17.2,6.7,27.7s-2.2,19.8-6.7,27.7
					c-4.5,8-10.5,14.1-18,18.4c-7.6,4.3-16,6.5-25.3,6.5c-11.9,0-21.4-3.6-28.4-10.7v45.5h-35.7v-138.3h34v10.1
					c6.6-7.9,16.6-11.8,30.1-11.8C458,1032.2,466.4,1034.4,474,1038.7z M456.6,1102.6c4-4.3,6-10.2,6-17.8s-2-13.4-6-17.8
					s-9.1-6.5-15.4-6.5c-6.3,0-11.4,2.2-15.4,6.5c-4,4.3-6,10.2-6,17.8s2,13.4,6,17.8s9.1,6.5,15.4,6.5
					C447.5,1109.1,452.6,1106.9,456.6,1102.6z"/>
			</g>
			<g>
				<path class="st1" d="M739.4,1038.7c7.6,4.3,13.6,10.5,18,18.4c4.4,8,6.7,17.2,6.7,27.7s-2.2,19.8-6.7,27.7
					c-4.5,8-10.5,14.1-18,18.4c-7.6,4.3-16,6.5-25.3,6.5c-11.9,0-21.3-3.6-28.4-10.7v45.5h-35.7v-138.3h34v10.1
					c6.6-7.9,16.7-11.8,30.1-11.8C723.4,1032.2,731.8,1034.4,739.4,1038.7z M722,1102.6c4-4.3,6-10.2,6-17.8s-2-13.4-6-17.8
					s-9.1-6.5-15.4-6.5s-11.4,2.2-15.4,6.5c-4,4.3-6,10.2-6,17.8s2,13.4,6,17.8s9.1,6.5,15.4,6.5
					C712.9,1109.1,718,1106.9,722,1102.6z"/>
			</g>
			<g>
				<path class="st1" d="M917.6,1017.2c-4-3.6-6-8.1-6-13.5c0-5.4,2-9.9,6-13.5c4-3.6,9.3-5.5,15.8-5.5s11.8,1.7,15.8,5.2
					s6,7.9,6,13.2c0,5.6-2,10.3-6,14s-9.3,5.5-15.8,5.5C926.9,1022.7,921.6,1020.8,917.6,1017.2z M915.5,1033.9h35.7v101.8h-35.7
					V1033.9z"/>
			</g>
			<g>
				<path class="st1" d="M1131,1130.7c-8.9-4.5-15.8-10.8-20.8-18.8c-4.9-8-7.4-17.1-7.4-27.2s2.5-19.2,7.4-27.2
					c4.9-7.9,11.9-14.2,20.8-18.6c8.9-4.4,19-6.7,30.3-6.7c11.5,0,21.5,2.5,29.9,7.4c8.4,4.9,14.3,11.8,17.8,20.6l-27.6,14.1
					c-4.6-9.1-11.4-13.7-20.3-13.7c-6.4,0-11.7,2.1-15.9,6.4c-4.2,4.3-6.3,10.1-6.3,17.7c0,7.6,2.1,13.6,6.3,17.9
					c4.2,4.3,9.5,6.5,15.9,6.5c8.9,0,15.7-4.6,20.3-13.7l27.6,14.1c-3.5,8.8-9.5,15.6-17.8,20.6c-8.4,4.9-18.3,7.4-29.9,7.4
					C1150,1137.4,1139.9,1135.2,1131,1130.7z"/>
			</g>
		</g>
		<g class="st0">
			<g>
				<path class="st1" d="M1511.4,1093.8h-74c1.5,5.3,4.4,9.3,8.7,12.1s9.7,4.2,16.3,4.2c4.9,0,9.1-0.7,12.7-2.1
					c3.6-1.4,7.2-3.6,10.8-6.8l18.8,19.5c-9.9,11-24.4,16.5-43.4,16.5c-11.9,0-22.4-2.3-31.4-6.8c-9-4.5-16-10.8-20.9-18.8
					c-4.9-8-7.4-17.1-7.4-27.2c0-10,2.4-19,7.2-27c4.8-7.9,11.5-14.2,20-18.7c8.5-4.5,18.1-6.8,28.7-6.8c10.1,0,19.3,2.1,27.6,6.3
					c8.3,4.2,14.8,10.3,19.6,18.2s7.2,17.4,7.2,28.3C1512,1085.3,1511.8,1088.2,1511.4,1093.8z M1443.9,1062.3
					c-3.7,3.1-6,7.4-7,12.8h41.7c-1-5.4-3.3-9.6-7-12.8c-3.7-3.1-8.3-4.7-13.8-4.7C1452.2,1057.6,1447.6,1059.2,1443.9,1062.3z"/>
			</g>
		</g>
		<path class="st1" d="M806.7,50.5c59.9,0,118,11.7,172.7,34.9c52.8,22.3,100.3,54.3,141.1,95.1s72.8,88.2,95.1,141.1
			c23.1,54.7,34.9,112.8,34.9,172.7c0,65.1-13.8,127.9-40.9,186.4c-18.9,40.8-43.5,78-73.5,111L1012.5,546l-37.2-74l-37.2,74
			l-1.2,2.3L836.2,347.8l-37.2-74l-37.2,74L626.3,617.5l-30.7-61l-37.2,74l-81.1,161.4c-29.2-32.2-53.4-68.4-72.1-108.1
			C378.2,626.4,363.9,565,363,501.2c-0.9-60.5,10-119.1,32.4-174.5c21.7-53.4,53.2-101.5,93.6-142.9c40.4-41.3,87.6-73.9,140.5-96.8
			c54.7-23.7,113-36,173.4-36.5C804.1,50.5,805.4,50.5,806.7,50.5 M806.7,8.9c-1.4,0-2.8,0-4.2,0
			c-270.1,2.3-485.3,222.8-481.1,492.9c2.2,142.6,65.9,270.4,165.8,357.8c0.4,0.3,0.8,0.5,1.2,0.5c0.7,0,1.4-0.4,1.7-1l105.5-210
			l30.7,61L799,366.5L937,641l38.3-76.3l148,294.4c0.3,0.7,1,1,1.7,1c0.4,0,0.9-0.2,1.2-0.5c101.6-89,165.8-219.7,165.8-365.4
			C1292,226.2,1074.7,8.9,806.7,8.9L806.7,8.9z"/>
	</g>
</g>
</svg>
