<?xml version="1.0" encoding="utf-8"?>
<!-- Generator: Adobe Illustrator 24.0.2, SVG Export Plug-In . SVG Version: 6.00 Build 0)  -->
<svg version="1.1" id="Camada_1" xmlns="http://www.w3.org/2000/svg" xmlns:xlink="http://www.w3.org/1999/xlink" x="0px" y="0px"
	 viewBox="0 0 1600 1181.11" style="enable-background:new 0 0 1600 1181.11;" xml:space="preserve">
<style type="text/css">
	.st0{enable-background:new    ;}
	.st1{fill:#FFFFFF;}
</style>
<g>
	<g class="st0">
		<path class="st1" d="M191.9,1110.19h-55.61l-10.33,25.55H88.01l58.05-131.5h36.63l58.24,131.5h-38.7L191.9,1110.19z M181,1082.77
			l-16.91-42.08l-16.91,42.08H181z"/>
		<path class="st1" d="M473.97,1038.71c7.58,4.32,13.59,10.46,18.03,18.41c4.44,7.96,6.67,17.19,6.67,27.71s-2.22,19.76-6.67,27.71
			c-4.45,7.96-10.46,14.09-18.03,18.41c-7.58,4.32-16,6.48-25.27,6.48c-11.9,0-21.35-3.57-28.37-10.71v45.46h-35.69v-138.27h34
			v10.14c6.64-7.89,16.65-11.84,30.06-11.84C457.97,1032.23,466.39,1034.39,473.97,1038.71z M456.59,1102.58
			c4.01-4.32,6.01-10.24,6.01-17.75s-2-13.43-6.01-17.75c-4.01-4.32-9.14-6.48-15.4-6.48c-6.26,0-11.4,2.16-15.4,6.48
			c-4.01,4.32-6.01,10.24-6.01,17.75s2,13.43,6.01,17.75c4.01,4.32,9.14,6.48,15.4,6.48
			C447.45,1109.07,452.58,1106.9,456.59,1102.58z"/>
		<path class="st1" d="M739.42,1038.71c7.58,4.32,13.59,10.46,18.03,18.41c4.44,7.96,6.67,17.19,6.67,27.71s-2.22,19.76-6.67,27.71
			c-4.45,7.96-10.46,14.09-18.03,18.41c-7.58,4.32-16,6.48-25.27,6.48c-11.9,0-21.35-3.57-28.37-10.71v45.46h-35.69v-138.27h34
			v10.14c6.64-7.89,16.65-11.84,30.06-11.84C723.42,1032.23,731.84,1034.39,739.42,1038.71z M722.04,1102.58
			c4.01-4.32,6.01-10.24,6.01-17.75s-2-13.43-6.01-17.75c-4.01-4.32-9.14-6.48-15.4-6.48c-6.26,0-11.4,2.16-15.4,6.48
			c-4.01,4.32-6.01,10.24-6.01,17.75s2,13.43,6.01,17.75c4.01,4.32,9.14,6.48,15.4,6.48C712.9,1109.07,718.03,1106.9,722.04,1102.58
			z"/>
		<path class="st1" d="M917.6,1017.2c-4.01-3.63-6.01-8.14-6.01-13.53c0-5.38,2-9.89,6.01-13.53c4.01-3.63,9.27-5.45,15.78-5.45
			c6.51,0,11.77,1.72,15.78,5.17c4.01,3.45,6.01,7.86,6.01,13.24c0,5.64-2,10.3-6.01,14c-4.01,3.7-9.27,5.54-15.78,5.54
			C926.87,1022.65,921.61,1020.84,917.6,1017.2z M915.53,1033.92h35.69v101.82h-35.69V1033.92z"/>
		<path class="st1" d="M1131.01,1130.67c-8.89-4.51-15.81-10.77-20.76-18.79c-4.95-8.01-7.42-17.1-7.42-27.24
			c0-10.14,2.47-19.19,7.42-27.15c4.95-7.95,11.86-14.15,20.76-18.6c8.89-4.44,18.97-6.67,30.25-6.67c11.52,0,21.48,2.47,29.87,7.42
			c8.39,4.95,14.34,11.81,17.85,20.57l-27.62,14.09c-4.63-9.14-11.4-13.71-20.29-13.71c-6.39,0-11.68,2.13-15.87,6.39
			c-4.2,4.26-6.29,10.14-6.29,17.66c0,7.64,2.1,13.62,6.29,17.94c4.2,4.32,9.49,6.48,15.87,6.48c8.89,0,15.65-4.57,20.29-13.71
			l27.62,14.09c-3.51,8.77-9.46,15.63-17.85,20.57c-8.39,4.95-18.35,7.42-29.87,7.42
			C1149.98,1137.43,1139.9,1135.18,1131.01,1130.67z"/>
	</g>
	<g class="st0">
		<path class="st1" d="M1511.42,1093.85h-74.02c1.5,5.26,4.42,9.3,8.74,12.12c4.32,2.82,9.74,4.23,16.25,4.23
			c4.88,0,9.11-0.69,12.68-2.07c3.57-1.38,7.17-3.63,10.8-6.76l18.79,19.54c-9.9,11.02-24.36,16.53-43.4,16.53
			c-11.9,0-22.36-2.25-31.37-6.76c-9.02-4.51-16-10.77-20.95-18.79c-4.95-8.01-7.42-17.1-7.42-27.24c0-10.02,2.41-19,7.23-26.96
			c4.82-7.95,11.49-14.18,20.01-18.69c8.52-4.51,18.1-6.76,28.74-6.76c10.14,0,19.35,2.1,27.62,6.29
			c8.27,4.2,14.81,10.27,19.63,18.22c4.82,7.95,7.23,17.38,7.23,28.27C1511.99,1085.27,1511.8,1088.21,1511.42,1093.85z
			 M1443.89,1062.29c-3.7,3.13-6.04,7.39-7.04,12.77h41.71c-1-5.38-3.35-9.64-7.04-12.77c-3.7-3.13-8.3-4.7-13.81-4.7
			C1452.18,1057.59,1447.58,1059.16,1443.89,1062.29z"/>
	</g>
	<path class="st1" d="M806.66,50.53c59.92,0,118.03,11.73,172.72,34.86c52.84,22.35,100.3,54.35,141.07,95.12
		s72.77,88.23,95.12,141.07c23.13,54.68,34.86,112.79,34.86,172.72c0,65.13-13.77,127.87-40.94,186.45
		c-18.92,40.81-43.54,77.99-73.47,111.03L1012.5,546.02l-37.17-73.96l-37.17,73.96l-1.17,2.34L836.16,347.78l-37.17-73.96
		l-37.17,73.96l-135.55,269.7l-30.68-61.03l-37.17,73.96l-81.11,161.37c-29.19-32.24-53.35-68.43-72.09-108.08
		c-27.07-57.27-41.29-118.65-42.27-182.46c-0.93-60.46,9.98-119.15,32.43-174.45c21.68-53.42,53.16-101.49,93.57-142.87
		c40.37-41.34,87.63-73.93,140.45-96.84c54.69-23.73,113.04-36.02,173.44-36.52C804.12,50.53,805.38,50.53,806.66,50.53
		 M806.66,8.92c-1.4,0-2.78,0.01-4.18,0.02c-270.13,2.27-485.26,222.81-481.13,492.93c2.18,142.64,65.9,270.36,165.78,357.78
		c0.36,0.31,0.8,0.46,1.23,0.46c0.68,0,1.35-0.37,1.69-1.04l105.54-209.99l30.68,61.03l172.72-343.66l137.98,274.53l38.35-76.29
		l147.96,294.38c0.34,0.67,1.01,1.04,1.69,1.04c0.43,0,0.87-0.15,1.23-0.46c101.64-88.97,165.84-219.67,165.84-365.36
		C1292.03,226.24,1074.71,8.92,806.66,8.92L806.66,8.92z"/>
</g>
</svg>
