<?xml version="1.0" encoding="utf-8"?>
<!-- Generator: Adobe Illustrator 24.0.2, SVG Export Plug-In . SVG Version: 6.00 Build 0)  -->
<svg version="1.1" id="Ñëîé_1" xmlns="http://www.w3.org/2000/svg" xmlns:xlink="http://www.w3.org/1999/xlink" x="0px" y="0px"
	 viewBox="0 0 220.8 303.2" style="enable-background:new 0 0 220.8 303.2;" xml:space="preserve">
<style type="text/css">
	.st0{fill-rule:evenodd;clip-rule:evenodd;fill:#8573BA;}
	.st1{fill-rule:evenodd;clip-rule:evenodd;fill:#BCAEE8;}
	.st2{fill-rule:evenodd;clip-rule:evenodd;fill:#57468A;}
	.st3{fill-rule:evenodd;clip-rule:evenodd;fill:#2A1B47;}
	.st4{fill:#FFFFFF;}
	.st5{fill:#24193B;}
	.st6{fill-rule:evenodd;clip-rule:evenodd;fill:#FFFFFF;}
	.st7{fill-rule:evenodd;clip-rule:evenodd;fill:#FFCB6B;}
	.st8{fill-rule:evenodd;clip-rule:evenodd;fill:#F29435;}
	.st9{fill-rule:evenodd;clip-rule:evenodd;fill:#FFDA8A;}
	.st10{fill-rule:evenodd;clip-rule:evenodd;fill:#C44C0F;}
	.st11{fill-rule:evenodd;clip-rule:evenodd;fill:#E06519;}
	.st12{fill-rule:evenodd;clip-rule:evenodd;fill:#FFE3A6;}
	.st13{fill-rule:evenodd;clip-rule:evenodd;fill:#FFDF99;}
	.st14{fill-rule:evenodd;clip-rule:evenodd;fill:#992C0E;}
</style>
<g>
	<g>
		<polygon class="st0" points="72.5,91.1 38.7,147.6 182,147.6 148.2,91.1 		"/>
		<path class="st1" d="M110.4,60.4c-11.5-0.1-22.9,5.7-29.2,16.3L69.6,96.1h81.6l-11.6-19.4C133.3,66.1,121.9,60.3,110.4,60.4"/>
		<path class="st2" d="M43.1,140.3l-31,51.8c-0.7,1.2-1.3,2.4-1.9,3.7h200.4c-0.6-1.2-1.2-2.5-1.9-3.7l-31-51.8H43.1z"/>
		<path class="st3" d="M11.3,193.5c-8.4,15.6-3,35.4,12.4,44.6c4.9,2.9,10.3,4.5,15.7,4.7l0,0h0c1,0,1.9,0,2.9,0
			c84.2,0,129.9,0,137.2,0c0.2,0,0.4,0,0.6,0l0,0c0.4,0,0.4,0,0.4,0c5.7-0.1,11.5-1.6,16.7-4.7h0c15.4-9.2,20.7-29,12.4-44.6H11.3z"
			/>
		<path class="st4" d="M181.7,244.1l-147.3-0.4c-0.2,0-0.4,0-0.6,0c-5.5-1-10.6-3.2-14.8-6.6c-4.3-3.3-7.8-7.6-10.1-12.7
			c-2.3-5.1-3.3-10.5-3-15.9c0.3-5.4,1.9-10.7,4.7-15.5L82.1,73.6l0,0c0-0.1,0.1-0.1,0.1-0.2c3.4-4.7,7.8-8.4,12.9-10.9
			c5-2.5,10.7-3.7,16.5-3.5c5.8,0.2,11.3,1.8,16.2,4.7c4.8,2.8,9,6.8,12,11.7c0,0,0,0.1,0.1,0.1l70.3,117.4c3.1,5.2,4.7,11,4.8,16.8
			c0.1,5.8-1.3,11.7-4.2,17c-2.9,5.3-7.1,9.6-12.1,12.6C193.6,242.3,187.8,244,181.7,244.1L181.7,244.1
			C181.8,244.1,181.7,244.1,181.7,244.1 M34.5,239.2l147.2,0.4c5.2-0.1,10.2-1.6,14.6-4.2c4.3-2.6,8-6.3,10.5-10.9
			c2.5-4.6,3.8-9.7,3.7-14.7c-0.1-5.1-1.5-10.1-4.2-14.6L136,77.8l0,0c-2.6-4.3-6.3-7.7-10.5-10.2c-4.2-2.5-9.1-3.9-14.1-4.1
			c-5-0.2-10,0.9-14.4,3.1c-4.4,2.1-8.2,5.3-11.2,9.4L14.5,195.2c-2.5,4.2-3.8,8.8-4.1,13.5c-0.3,4.7,0.6,9.5,2.6,13.8
			c2,4.4,5,8.2,8.8,11C25.4,236.4,29.8,238.4,34.5,239.2z"/>
		<path class="st5" d="M91.6,59.1c5.7-3.2,12.2-4.8,18.7-4.8c6.5-0.1,13,1.6,18.7,4.8c5.5,3.1,10.3,7.6,13.8,13.4l71.7,119.9v0
			c5.3,8.8,6.5,19,4.1,28.3c-2.3,9.3-8.2,17.7-17,23h0c-2.9,1.7-5.9,3-9,3.9c-3.1,0.9-6.3,1.3-9.5,1.4l0,0l0,0c0,0,0,0-0.4,0
			c-0.1,0-0.3,0-0.4,0l-0.1,0c-0.1,0-0.2,0-0.3,0c-3.8,0-17.6,0-41.2,0c-23.7,0-57.4,0-101.1,0c-0.7,0-1.2,0-1.6,0
			c-0.4,0-0.8,0-1.4,0c0,0-0.1,0-0.1,0h0v0c-0.1,0-0.2,0-0.3,0c-3-0.1-6-0.6-8.9-1.5c-2.9-0.9-5.7-2.1-8.4-3.7l0,0
			c-8.8-5.3-14.7-13.7-17-23c-2.3-9.3-1.1-19.5,4.1-28.3l0,0L77.8,72.5C81.3,66.7,86.1,62.1,91.6,59.1 M110.4,59.4
			c-5.7-0.1-11.3,1.4-16.2,4.1c-4.8,2.7-8.9,6.5-11.9,11.5L10.5,195c-4.6,7.6-5.6,16.4-3.6,24.4c2,8,7.1,15.3,14.7,19.8l0,0
			c2.3,1.4,4.7,2.4,7.2,3.2c2.5,0.8,5.1,1.2,7.7,1.3v0h0c0.1,0,0.2,0,0.3,0c0.3,0,0.7,0,1.2,0c0.6,0,1.1,0,1.4,0c0.1,0,0.1,0,0.2,0
			c43.7,0,77.4,0,101.1,0c23.8,0,37.5,0,41.3,0c0,0,0,0,0,0v0c0.1,0,0.2,0,0.3,0c0.1,0,0.2,0,0.3,0c0,0,0.1,0,0.1,0
			c0.1,0,0.1,0,0.2,0h0c0.1,0,0.2,0,0.3,0c2.7,0,5.5-0.4,8.2-1.2c2.7-0.8,5.3-1.9,7.7-3.3l0,0c7.6-4.6,12.7-11.8,14.7-19.8
			c2-8,1-16.8-3.6-24.4l0,0L138.5,75.1c-3-5-7.1-8.9-11.9-11.5C121.7,60.8,116.1,59.4,110.4,59.4C110.4,59.4,110.4,59.4,110.4,59.4
			L110.4,59.4z"/>
		<polygon class="st6" points="110.6,81.7 111.9,85.7 115.9,87 111.9,88.2 110.6,92.3 109.4,88.2 105.4,87 109.4,85.7 		"/>
		<polygon class="st6" points="132.7,99.6 133.7,102.7 136.8,103.6 133.7,104.5 132.7,107.6 131.8,104.5 128.7,103.6 131.8,102.7 		
			"/>
		<polygon class="st6" points="87.3,99.6 88.3,102.7 91.3,103.6 88.3,104.5 87.3,107.6 86.4,104.5 83.3,103.6 86.4,102.7 		"/>
		<path class="st4" d="M80.4,162c1.1-0.3,2.3-0.5,3.5-0.7c0.5-0.1,0.9-0.1,1.4-0.2c-0.6-0.9-1.2-1.9-1.7-2.9l-0.6-0.2
			c-0.1,0-0.2,0-0.2-0.1c-0.3-0.1-0.7-0.2-1-0.4c-0.1,0.1-0.3,0.2-0.4,0.3c-0.4,0.4-0.7,1-0.9,1.5c-0.2,0.6-0.2,1.2-0.1,1.8
			C80.3,161.5,80.3,161.7,80.4,162 M163.6,197.5C163.6,197.4,163.6,197.4,163.6,197.5C163.6,197.4,163.6,197.4,163.6,197.5
			L163.6,197.5z M56,185c0.5-1.6,1.2-3.1,1.9-4.6c-0.8-0.9-1.2-2-1.4-3.1c-0.2-1.3,0-2.7,0.7-4c0-0.1,0.1-0.2,0.1-0.2
			c0.8-1.3,1.9-2.3,3.3-2.8c1.3-0.5,2.8-0.6,4.3-0.1l0,0c0.1,0,0.1,0,0.2,0.1l0.4,0.2c0.3-0.3,0.7-0.6,1-0.9c0.6-0.6,1.3-1.1,2-1.7
			c-0.9-1.9-1.4-3.9-1.5-5.9c-0.2-2.7,0.3-5.6,1.4-8.2c1.1-2.6,2.9-4.9,5-6.6c1.6-1.3,3.5-2.3,5.5-3l0-2.6c0-0.1,0-0.3,0-0.4
			c0.1-1.1,0.6-2.1,1.3-2.9c0.7-0.7,1.5-1.3,2.5-1.6c0,0,0.1,0,0.1,0l0.3-0.1c0-0.1,0.1-0.1,0.1-0.2c0.1-0.3,0.3-0.5,0.5-0.8
			c0.8-7.1,4.2-13.4,9.2-17.9c5.1-4.6,12-7.3,19.4-7.1c7.4,0.2,14.1,3.2,19,8.1c4.7,4.6,7.8,10.9,8.3,17.9l0.1,0c0.1,0,0.1,0,0.2,0
			c1,0.3,1.9,0.9,2.5,1.6c0.7,0.8,1.1,1.7,1.2,2.8l0,0c0,0.1,0,0.2,0,0.3l0,11.1c0.1,1.3-0.2,2.5-0.9,3.5c-0.7,1-1.8,1.8-3.1,2.1
			l0,0l-0.8,0.2c-0.5,1-1,2-1.6,2.9l0,0.1c3.2,0.4,6.4,1.3,9.3,2.6c3.5,1.6,6.7,3.8,9.5,6.6c0.1,0,0.2-0.1,0.3-0.1
			c1.5-0.6,3.1-0.5,4.5,0c1.4,0.5,2.6,1.5,3.4,2.9c0.8,1.4,1,3,0.6,4.4c-0.2,1-0.7,1.9-1.3,2.7c0.7,1.5,1.4,3,1.9,4.5
			c0.6,1.8,1.1,3.6,1.4,5.5c0.6,0.4,1.1,0.9,1.6,1.4c0.8,1,1.3,2.2,1.4,3.5c0.1,1.3-0.1,2.6-0.7,3.7c-0.6,1.1-1.4,2-2.5,2.6
			c-0.1,0.1-0.2,0.1-0.4,0.2c-0.2,0.1-0.4,0.2-0.7,0.3c-0.1,0-0.1,0.1-0.2,0.1c-0.1,0-0.1,0-0.2,0.1l-18.8,6.2
			c-0.5,1.8-1.6,3.3-2.9,4.5c-1.7,1.5-3.9,2.5-6.4,2.6v0c0,0-0.1,0-0.1,0l-14,0c-0.4,0.5-0.9,1-1.4,1.4c-1,0.8-2.2,1.2-3.5,1.3l0,0
			c-0.1,0-0.1,0-0.2,0l-12.6,0c-0.2,0-0.3,0-0.5,0c-1.2-0.1-2.4-0.6-3.3-1.4c-0.5-0.4-0.9-0.8-1.3-1.3l-13.5,0c0,0-0.1,0-0.1,0
			c-2.3-0.1-4.5-0.9-6.3-2.2c-1.4-1.1-2.5-2.6-3.2-4.2l-21-6.9l0,0c-1.3-0.4-2.4-1.3-3.2-2.4c-0.8-1.1-1.2-2.4-1.2-3.8
			c0-1.4,0.5-2.7,1.3-3.8c0.5-0.6,1.1-1.2,1.8-1.6C55,188.6,55.4,186.8,56,185z M63.5,180c-0.1,1.6-0.5,2.6-1.3,2.8
			c-0.6,1.2-1.1,2.5-1.6,3.7c-0.6,1.9-1.1,3.9-1.4,5.9c-0.1,1-0.8,1.8-1.7,2l0,0c-0.3,0.1-0.6,0.3-0.8,0.5c-0.2,0.3-0.3,0.6-0.3,0.9
			c0,0.3,0.1,0.7,0.3,0.9c0.2,0.3,0.4,0.4,0.7,0.5l0,0l0,0l22.1,7.3c0.8,0.3,1.4,1,1.6,1.8c0.3,1.2,1,2.2,1.9,2.9
			c0.9,0.7,2.1,1.2,3.4,1.2h0l14.9,0c1.1,0,2,0.7,2.3,1.6l0,0c0.1,0.3,0.3,0.6,0.5,0.8c0.2,0.2,0.5,0.3,0.8,0.3l12.4,0
			c0.3,0,0.6-0.1,0.9-0.3c0.3-0.2,0.5-0.5,0.6-0.8c0.4-1.1,1.4-1.7,2.5-1.6l15.2,0c1.2,0,2.4-0.5,3.3-1.3c0.9-0.8,1.5-1.9,1.6-3.1
			c0.1-1,0.8-1.7,1.7-2l0,0l20.1-6.6c0,0,0.1,0,0.1,0l0,0c0,0,0,0,0,0c0,0,0.2-0.1,0.5-0.2c0.2-0.1,0.4-0.3,0.5-0.6
			c0.1-0.3,0.2-0.6,0.2-0.9c0-0.3-0.2-0.6-0.3-0.8c-0.2-0.2-0.4-0.4-0.7-0.5c-1-0.3-1.7-1.2-1.8-2.2c-0.3-1.9-0.7-3.8-1.3-5.7
			c-0.6-1.8-1.4-3.5-2.3-5.1c-0.1-0.2-0.3-0.4-0.4-0.7l0,0c-0.2-0.4-0.2-0.8-0.2-1.1l0,0c0.1-0.8,0.5-1.5,1.2-1.9
			c0.1-0.1,0.2-0.1,0.3-0.1l0,0c0,0,0.1,0,0.1-0.1c0.2-0.2,0.4-0.5,0.5-0.8c0.1-0.4,0-0.7-0.1-1c-0.2-0.3-0.5-0.6-0.8-0.7
			c-0.3-0.1-0.7-0.1-1.1,0c0,0-0.1,0-0.1,0l-1.6,0.6c-1,0.4-2.1,0.1-2.8-0.6l0,0c-2.6-2.8-5.7-5.1-9.1-6.7c-3.4-1.6-7.2-2.4-11-2.5
			c-0.4,0-0.7-0.1-1-0.2l0,0l-0.9-0.4c-1.2-0.6-1.8-2.1-1.2-3.3c0.1-0.3,0.3-0.5,0.5-0.7c0.8-0.9,1.5-1.8,2.2-2.8
			c0.7-1,1.3-2.1,1.8-3.2c0.3-0.7,0.9-1.2,1.6-1.4l0,0l2-0.5l0,0l0,0c0.1,0,0.1-0.1,0.2-0.1c0-0.1,0.1-0.1,0.1-0.2
			c0-0.2,0-0.3,0-0.5l0-10.8c0,0,0-0.1,0-0.1c0,0-0.1-0.1-0.1-0.1c0,0,0,0-0.1,0l-1.6-0.4c-0.8-0.2-1.4-0.8-1.7-1.5l0,0l-0.3-0.7
			c-0.1-0.3-0.2-0.7-0.2-1.1v0c-0.2-6.1-2.8-11.6-6.9-15.6c-4.1-4-9.6-6.5-15.7-6.7c-6.1-0.2-11.7,2.1-16,5.9
			c-4.3,3.8-7.1,9.1-7.7,15.2c0,0.4-0.2,0.8-0.4,1.2c-0.1,0.2-0.3,0.5-0.4,0.8c-0.2,0.3-0.3,0.6-0.4,0.9c-0.3,0.8-0.9,1.4-1.7,1.6
			l0,0l-1.5,0.4c0,0-0.1,0-0.1,0c0,0-0.1,0-0.1,0.1c0,0,0,0.1-0.1,0.1l0,4.4c0,1.2-0.9,2.2-2,2.4l0,0c-2,0.4-3.8,1.3-5.4,2.5
			c-1.5,1.2-2.8,2.9-3.6,4.7c-0.8,1.9-1.1,3.9-1,5.9c0.1,1.2,0.4,2.4,0.8,3.6l3-1.8c-0.1-0.5-0.2-0.9-0.3-1.4
			c-0.2-1.3-0.1-2.7,0.3-4c0.4-1.3,1.1-2.5,2-3.4c0.9-0.9,1.9-1.7,3.1-2.1c1-0.5,2.3-0.2,3,0.7c0,0.1,0.1,0.1,0.1,0.1
			c0,0,0.1,0,0.1,0c0,0,0,0,0,0l1.7,0.4l0,0c0.7,0.2,1.3,0.6,1.6,1.3c0.5,1.1,1.2,2.3,1.9,3.3c0.7,1.1,1.5,2,2.3,2.9
			c0.2,0.2,0.4,0.4,0.5,0.7c0.6,1.2,0.1,2.7-1.1,3.3l-0.6,0.3l0,0c-0.3,0.2-0.7,0.2-1.1,0.2c-1.6,0-3.1,0.1-4.7,0.3
			c-1.5,0.2-3,0.5-4.4,0.9l-6,2.9l-2.4,1.5c-0.7,0.5-1.3,1.1-2,1.6c-0.7,0.6-1.3,1.2-2,1.9c-0.7,0.7-1.8,0.9-2.7,0.6l-1.7-0.7
			c-0.3-0.1-0.7-0.1-1,0c-0.3,0.1-0.6,0.3-0.8,0.6c0,0,0,0.1-0.1,0.1c-0.1,0.3-0.2,0.6-0.1,0.9c0.1,0.3,0.2,0.7,0.5,0.9
			c0,0,0.1,0.1,0.1,0.1C62.9,178,63.6,179,63.5,180z"/>
		<path class="st7" d="M79.5,166.3c-2.9,2-4.9,3-6,2.8c-3.2-4.1-3.8-9.6-1.6-14.3c2.3-4.7,7-7.7,12.2-7.7c0.2,4.9-0.4,7-1.8,6.2
			c-2.6,0.8-4.6,3-5.2,5.7C76.5,161.6,77.5,164.5,79.5,166.3"/>
		<path d="M91.6,150.7c-1.9-1.4-4.1-2.2-6.4-2.4c-2.3-0.2-4.6,0.3-6.7,1.4c-2.1,1.1-3.8,2.8-4.9,4.7c-1.2,2-1.8,4.3-1.7,6.6
			c0.1,2.4,0.8,4.6,2.1,6.5c1.3,1.9,3.1,3.4,5.2,4.4l-1,2.3c-2.6-1.2-4.8-3-6.3-5.3c-1.5-2.3-2.4-5-2.5-7.8c-0.1-2.9,0.6-5.6,2-8
			c1.4-2.4,3.4-4.4,6-5.7c2.5-1.3,5.3-1.9,8.1-1.7c2.7,0.2,5.4,1.2,7.7,2.9L91.6,150.7z"/>
		<path d="M88.1,155.5c-1-0.7-2.2-1.2-3.4-1.3c-1.2-0.1-2.4,0.1-3.5,0.7c-1.1,0.6-2,1.4-2.6,2.5c-0.6,1-0.9,2.2-0.9,3.5
			c0,1.2,0.4,2.4,1.1,3.4c0.7,1,1.6,1.8,2.7,2.3l-1,2.3c-1.6-0.7-2.9-1.8-3.8-3.2c-0.9-1.4-1.5-3-1.5-4.7c-0.1-1.7,0.4-3.4,1.2-4.8
			c0.8-1.4,2.1-2.6,3.6-3.4c1.5-0.8,3.2-1.1,4.9-1c1.7,0.1,3.3,0.7,4.7,1.7L88.1,155.5z"/>
		<path class="st8" d="M90.3,164.9c0.7,16.4-2.3,29-9.2,37.8c-2.4,0.2-4.9,0.2-7.3,0.2c-0.2-0.3-0.4-0.6-0.7-0.9l-0.1-0.1
			c-0.3-0.3-0.7-0.6-1.1-0.8l-1.6-0.8l-0.4-0.3c-0.3-0.2-0.6-0.3-0.8-0.5c-0.3-0.2-0.6-0.3-0.9-0.5c-0.3-0.2-0.7-0.4-1-0.5l-0.9-0.3
			c-1.1-0.4-2.3-0.3-3.2,0.1c-0.2-0.1-0.3-0.1-0.5-0.2l-1.2-0.5c-0.1,0-0.2-0.1-0.4-0.1l-0.8-0.2c-0.6-0.2-1.1-0.4-1.7-0.6
			c-0.1,0-0.2-0.1-0.3-0.1c-0.1-8.4,3.2-16.5,9.2-22.5C73.4,168.1,79.8,164.7,90.3,164.9"/>
		<path class="st9" d="M69.5,197.8c-7.2-3.1-10.8-4.6-10.8-4.6c1.5-14,12-25.4,25.9-28c2.7-0.6,3.6,1.5,2.7,6.2
			C77.1,176.4,70.3,186.5,69.5,197.8"/>
		<path class="st8" d="M131,164.9c-0.7,16.4,2.3,29,9.2,37.8c2.4,0.2,4.9,0.2,7.3,0.2c0.2-0.3,0.4-0.6,0.7-0.9l0.1-0.1
			c0.3-0.3,0.7-0.6,1.1-0.8l1.6-0.8l0.4-0.3c0.3-0.2,0.6-0.3,0.8-0.5c0.3-0.2,0.6-0.3,0.9-0.5c0.3-0.2,0.7-0.4,1-0.5l0.9-0.3
			c1.1-0.4,2.3-0.3,3.2,0.1c0.2-0.1,0.3-0.1,0.5-0.2l1.2-0.5c0.1,0,0.2-0.1,0.4-0.1l0.8-0.2c0.6-0.2,1.1-0.4,1.7-0.6
			c0.1,0,0.2-0.1,0.3-0.1c0.1-8.4-3.2-16.5-9.2-22.5C147.9,168.1,141.5,164.7,131,164.9"/>
		<path class="st9" d="M152.3,197.8c7.2-3.1,10.8-4.6,10.8-4.6c-1.5-14-12-25.4-25.9-28c-2.7-0.6-3.6,1.5-2.7,6.2
			C144.7,176.4,151.5,186.5,152.3,197.8"/>
		<path d="M67.7,200.6L67.7,200.6C67.7,200.6,67.8,200.6,67.7,200.6 M87.1,186.3c1.4-5.8,2-12.4,1.8-19.9c-4.4,0.1-7.9,0.8-11.1,2.2
			c-3.5,1.5-6.5,3.8-9.4,6.7c-2.8,2.8-5,6.2-6.5,9.8c-1.4,3.3-2.1,6.9-2.2,10.5l0.9,0.3l0,0l0.8,0.2c0,0,0.1,0,0.2,0.1
			c0.1,0,0.2,0.1,0.2,0.1l1.2,0.4c0.5-0.2,1-0.3,1.5-0.3c0.7,0,1.5,0.1,2.2,0.4l0.9,0.3c0.3,0.1,0.6,0.3,0.9,0.4
			c0.1,0.1-0.3-0.1,0.2,0.1v0c0.4,0.2-0.1,0,0.2,0.1l0,0c0.3,0.1,0.5,0.3,0.8,0.4c0.2,0.1,0.2,0.1,0.2,0.1c0.2,0.1,0.4,0.3,0.7,0.4
			l0,0l0.4,0.2l1.4,0.7l0,0c0.3,0.1,0.6,0.3,0.8,0.5c0.3,0.2,0.5,0.4,0.7,0.6h0l0.1,0.1l0,0c0.1,0.1,0.3,0.3,0.4,0.4
			c0.9,0,1.9,0,2.8,0c0.9,0,1.9-0.1,2.9-0.1C83.4,197.1,85.6,192.1,87.1,186.3z M91.8,164.9c0.4,8.3-0.2,15.7-1.8,22.2
			c-1.6,6.5-4.1,12.1-7.7,16.6l-0.4,0.5l-0.7,0c-1.2,0.1-2.4,0.1-3.7,0.2c-1.2,0-2.5,0-3.7,0l-0.9,0l-0.4-0.7
			c-0.1-0.1-0.1-0.2-0.2-0.3l0,0c-0.1-0.1-0.1-0.2-0.2-0.3h0l-0.1-0.1l0,0c-0.1-0.1-0.2-0.2-0.3-0.3c-0.1-0.1-0.2-0.2-0.4-0.2l0,0
			l-1.6-0.8l-0.1-0.1l0,0l-0.4-0.3v0c-0.2-0.1-0.3-0.2-0.5-0.3l-0.3-0.1c-0.2-0.1-0.4-0.2-0.6-0.3h0l0,0l0,0l0,0h0c-0.1,0,0,0,0,0
			l0,0c0,0-0.1-0.1-0.3-0.1l0,0c-0.3-0.2,0,0-0.3-0.1c-0.2-0.1-0.5-0.2-0.6-0.3l-0.9-0.3c-0.3-0.1-0.7-0.2-1-0.2
			c-0.3,0-0.7,0.1-1,0.3l-0.6,0.3l-0.6-0.3c0,0-0.1,0-0.1-0.1c-0.1,0-0.2-0.1-0.3-0.1l-1.2-0.5c0,0-0.1,0-0.1,0c0,0,0,0-0.1,0
			l-0.8-0.2l-0.1,0l-1.7-0.6c0,0,0,0-0.1,0c0,0,0,0-0.1,0l-1.1-0.3l0-1.2c0-4.4,0.8-8.8,2.4-12.8c1.6-4,4.1-7.7,7.2-10.8
			c3.2-3.2,6.4-5.7,10.3-7.3c3.9-1.7,8.3-2.5,13.8-2.4l1.4,0L91.8,164.9z"/>
		<path class="st9" d="M82,201l-23.2-7.6c-1.4-0.5-3,0.3-3.4,1.7c-0.5,1.4,0.3,3,1.7,3.4l23.2,7.6c1.4,0.5,3-0.3,3.4-1.7
			C84.2,203,83.5,201.5,82,201"/>
		<path d="M59.3,192.2l23.2,7.6c1,0.3,1.8,1.1,2.3,2c0.5,0.9,0.6,2,0.2,3c-0.3,1-1.1,1.8-2,2.3c-0.9,0.5-2,0.6-3,0.2l-23.2-7.6
			c-1-0.3-1.8-1.1-2.3-2c-0.5-0.9-0.6-2-0.2-3c0.3-1,1.1-1.8,2-2.3C57.2,191.9,58.2,191.8,59.3,192.2 M81.6,202.2l-23.2-7.6
			c-0.4-0.1-0.8-0.1-1.1,0.1c-0.3,0.2-0.6,0.5-0.7,0.8c-0.1,0.4-0.1,0.8,0.1,1.1c0.2,0.3,0.5,0.6,0.8,0.7l23.2,7.6
			c0.4,0.1,0.8,0.1,1.1-0.1c0.3-0.2,0.6-0.5,0.7-0.8c0.1-0.4,0.1-0.8-0.1-1.1C82.3,202.6,82,202.3,81.6,202.2z"/>
		<path class="st9" d="M86.5,183.1l-22.6-9.2c-1.4-0.6-3,0.1-3.5,1.5c-0.6,1.4,0.1,3,1.5,3.5l22.6,9.2c1.4,0.6,3-0.1,3.5-1.5
			C88.5,185.2,87.9,183.6,86.5,183.1"/>
		<path d="M61.4,180.1 M64.4,172.7l22.6,9.2c1,0.4,1.8,1.2,2.2,2.1c0.4,0.9,0.4,1.8,0.1,2.8v0l-0.1,0.2c-0.4,1-1.2,1.8-2.1,2.2
			c-0.9,0.4-1.8,0.4-2.8,0.1h0l-0.2-0.1l-22.6-9.2l0,0c-1-0.4-1.8-1.2-2.2-2.1c-0.4-0.9-0.4-1.8-0.1-2.8v0l0.1-0.2
			c0.4-1,1.2-1.8,2.1-2.2c0.9-0.4,1.8-0.4,2.8-0.1h0L64.4,172.7z M86,184.2l-22.3-9.1l-0.2-0.1c-0.4-0.2-0.8-0.1-1.1,0
			c-0.3,0.1-0.5,0.3-0.7,0.6v0l-0.1,0.2c-0.1,0.4-0.1,0.7,0,1.1c0.1,0.3,0.4,0.6,0.8,0.8h0l22.3,9.1l0.2,0.1c0.4,0.2,0.8,0.1,1.1,0
			c0.3-0.1,0.6-0.4,0.8-0.8l0,0c0.2-0.4,0.1-0.8,0-1.1C86.6,184.7,86.4,184.4,86,184.2z"/>
		<path d="M153.6,200.6L153.6,200.6C153.5,200.6,153.6,200.6,153.6,200.6 M131.3,187c-1.6-6.4-2.2-13.8-1.8-22.2l0.1-1.4l1.4,0
			c5.5-0.1,9.9,0.7,13.8,2.4c3.9,1.7,7.1,4.1,10.3,7.3c3.1,3.1,5.5,6.8,7.2,10.8c1.6,4,2.5,8.3,2.4,12.8l0,1.2l-1.1,0.3
			c-0.1,0-0.1,0-0.1,0c-0.1,0-0.1,0-0.1,0l-1.7,0.6l-0.1,0l-0.8,0.2c-0.1,0-0.1,0-0.1,0c0,0-0.1,0-0.1,0l-1.2,0.5
			c-0.1,0-0.2,0.1-0.3,0.1c-0.1,0-0.1,0-0.1,0.1l-0.6,0.3l-0.6-0.3c-0.3-0.2-0.7-0.2-1-0.3c-0.3,0-0.7,0-1,0.2l-0.9,0.3
			c-0.2,0.1-0.4,0.2-0.6,0.3c-0.1,0-0.2,0.1-0.3,0.1c-0.1,0.1-0.2,0.1-0.3,0.1l0,0c0,0,0.1,0,0,0h0l0,0l0,0l0,0h0
			c-0.2,0.1-0.4,0.2-0.6,0.3l-0.3,0.1c-0.2,0.1-0.3,0.2-0.5,0.3l0,0l-0.4,0.3l-0.1,0l-0.1,0.1l-1.6,0.8l0,0
			c-0.1,0.1-0.2,0.1-0.4,0.2c-0.1,0.1-0.2,0.2-0.3,0.3l0,0l-0.1,0.1h0c-0.1,0.1-0.2,0.2-0.2,0.3l0,0c-0.1,0.1-0.1,0.2-0.2,0.3
			l-0.4,0.7l-0.9,0c-1.2,0-2.5,0-3.7,0c-1.3,0-2.5-0.1-3.7-0.2l-0.7,0l-0.4-0.5C135.5,199.1,132.9,193.5,131.3,187z M132.5,166.4
			c-0.2,7.5,0.3,14.1,1.8,19.9c1.4,5.8,3.7,10.8,6.7,15c1,0.1,2,0.1,2.9,0.1c0.9,0,1.9,0,2.8,0c0.1-0.2,0.3-0.3,0.4-0.4l0,0l0.1-0.1
			h0c0.2-0.2,0.5-0.4,0.7-0.6c0.3-0.2,0.5-0.3,0.8-0.5l0,0l1.4-0.7l0.3-0.2l0,0c0.2-0.1,0.4-0.3,0.7-0.4c0,0,0.1,0,0.2-0.1
			c0.3-0.2,0.5-0.3,0.8-0.4l0,0c0.3-0.1-0.2,0.1,0.2-0.1c0.1,0,0.1-0.1,0.2-0.1c0.3-0.1,0.6-0.3,0.9-0.4l0.9-0.3
			c0.7-0.3,1.5-0.4,2.2-0.4c0.5,0,1,0.1,1.5,0.3l1.2-0.4c0.1,0,0.2-0.1,0.2-0.1c0.1,0,0.2-0.1,0.2-0.1l0.8-0.2l0,0l0.9-0.3
			c-0.1-3.6-0.9-7.2-2.2-10.5c-1.5-3.6-3.7-7-6.5-9.8c-2.9-2.9-5.9-5.2-9.4-6.7C140.4,167.2,136.8,166.5,132.5,166.4z"/>
		<path class="st9" d="M139.3,201l23.2-7.6c1.4-0.5,3,0.3,3.4,1.7c0.5,1.4-0.3,3-1.7,3.4l-23.2,7.6c-1.4,0.5-3-0.3-3.4-1.7
			C137.1,203,137.8,201.5,139.3,201"/>
		<path d="M162.8,194.6l-23.2,7.6c-0.4,0.1-0.7,0.4-0.8,0.7c-0.2,0.3-0.2,0.7-0.1,1.1c0.1,0.4,0.4,0.7,0.7,0.8
			c0.3,0.2,0.7,0.2,1.1,0.1l23.2-7.6c0.4-0.1,0.7-0.4,0.8-0.7c0.2-0.3,0.2-0.7,0.1-1.1c-0.1-0.4-0.4-0.7-0.7-0.8
			C163.6,194.5,163.2,194.4,162.8,194.6 M138.9,199.8l23.2-7.6c1-0.3,2.1-0.2,3,0.2c0.9,0.5,1.6,1.3,2,2.3c0.3,1,0.2,2.1-0.2,3
			c-0.5,0.9-1.3,1.6-2.3,2l-23.2,7.6c-1,0.3-2.1,0.2-3-0.2c-0.9-0.5-1.6-1.3-2-2.3c-0.3-1-0.2-2.1,0.2-3
			C137,200.9,137.8,200.1,138.9,199.8z"/>
		<path class="st9" d="M134.8,183.1l22.6-9.2c1.4-0.6,3,0.1,3.5,1.5c0.6,1.4-0.1,3-1.5,3.5l-22.6,9.2c-1.4,0.6-3-0.1-3.5-1.5
			C132.8,185.2,133.4,183.6,134.8,183.1"/>
		<path d="M159.9,180.1L159.9,180.1 M157.6,175.1l-22.3,9.1c-0.4,0.1-0.6,0.4-0.8,0.8c-0.1,0.4-0.2,0.8,0,1.1l0,0
			c0.1,0.4,0.4,0.6,0.8,0.8c0.4,0.1,0.8,0.2,1.1,0l0.2-0.1l22.3-9.1h0c0.4-0.1,0.6-0.4,0.8-0.8c0.1-0.3,0.2-0.7,0-1.1l-0.1-0.2v0
			c-0.2-0.3-0.4-0.5-0.7-0.6c-0.4-0.1-0.8-0.2-1.1,0L157.6,175.1z M134.4,181.9l22.6-9.2l0.2-0.1h0c0.9-0.3,1.9-0.2,2.8,0.1
			c0.9,0.4,1.7,1.1,2.1,2.2l0.1,0.2v0c0.3,0.9,0.2,1.9-0.1,2.8c-0.4,0.9-1.1,1.7-2.2,2.1l0,0l-22.6,9.2l-0.2,0.1h0
			c-0.9,0.3-1.9,0.2-2.8-0.1c-0.9-0.4-1.7-1.1-2.1-2.2l-0.1-0.2v0c-0.3-0.9-0.2-1.9,0.1-2.8C132.6,183.1,133.3,182.3,134.4,181.9z"
			/>
		<path class="st7" d="M86.7,171.5h49.5c3.6,0,6.6,2.9,6.6,6.6v26.9c0,3.6-2.9,6.6-6.6,6.6H86.7c-3.6,0-6.6-2.9-6.6-6.6V178
			C80.1,174.4,83.1,171.5,86.7,171.5"/>
		<path d="M136.2,173H86.7c-1.4,0-2.6,0.6-3.6,1.5c-0.9,0.9-1.5,2.2-1.5,3.6v26.9c0,1.4,0.6,2.6,1.5,3.6c0.9,0.9,2.2,1.5,3.6,1.5
			h49.5c1.4,0,2.6-0.6,3.6-1.5c0.9-0.9,1.5-2.2,1.5-3.6V178c0-1.4-0.6-2.6-1.5-3.6C138.8,173.6,137.6,173,136.2,173 M86.7,170h49.5
			c2.2,0,4.2,0.9,5.7,2.4c1.5,1.5,2.4,3.5,2.4,5.7v26.9c0,2.2-0.9,4.2-2.4,5.7c-1.5,1.5-3.5,2.4-5.7,2.4H86.7
			c-2.2,0-4.2-0.9-5.7-2.4c-1.5-1.5-2.4-3.5-2.4-5.7V178c0-2.2,0.9-4.2,2.4-5.7C82.5,170.9,84.5,170,86.7,170z"/>
		<path class="st7" d="M90.4,174.5h42.1c2.9,0,5.3,2.4,5.3,5.3v21.7c0,2.9-2.4,5.3-5.3,5.3H90.4c-2.9,0-5.3-2.4-5.3-5.3v-21.7
			C85.1,176.9,87.5,174.5,90.4,174.5"/>
		<path class="st6" d="M131.9,199.7c0.9,0,1.6,0.7,1.6,1.6c0,0.9-0.7,1.6-1.6,1.6c-0.9,0-1.6-0.7-1.6-1.6
			C130.3,200.4,131,199.7,131.9,199.7"/>
		<path d="M132.7,200.5c-0.2-0.2-0.5-0.3-0.8-0.3c-0.3,0-0.6,0.1-0.8,0.3c-0.2,0.2-0.3,0.5-0.3,0.8c0,0.3,0.1,0.6,0.3,0.8
			c0.2,0.2,0.5,0.3,0.8,0.3c0.3,0,0.6-0.1,0.8-0.3c0.2-0.2,0.3-0.5,0.3-0.8C133,201,132.9,200.7,132.7,200.5 M131.9,199.2
			c0.6,0,1.1,0.2,1.5,0.6c0.4,0.4,0.6,0.9,0.6,1.5c0,0.6-0.2,1.1-0.6,1.5c-0.4,0.4-0.9,0.6-1.5,0.6c-0.6,0-1.1-0.2-1.5-0.6
			c-0.4-0.4-0.6-0.9-0.6-1.5c0-0.6,0.2-1.1,0.6-1.5C130.8,199.4,131.3,199.2,131.9,199.2z"/>
		<path class="st6" d="M90.7,199.7c0.9,0,1.6,0.7,1.6,1.6c0,0.9-0.7,1.6-1.6,1.6c-0.9,0-1.6-0.7-1.6-1.6
			C89.1,200.4,89.8,199.7,90.7,199.7"/>
		<path d="M91.4,200.5c-0.2-0.2-0.5-0.3-0.8-0.3c-0.3,0-0.6,0.1-0.8,0.3c-0.2,0.2-0.3,0.5-0.3,0.8c0,0.3,0.1,0.6,0.3,0.8
			c0.2,0.2,0.5,0.3,0.8,0.3c0.3,0,0.6-0.1,0.8-0.3c0.2-0.2,0.3-0.5,0.3-0.8C91.7,201,91.6,200.7,91.4,200.5 M90.7,199.2
			c0.6,0,1.1,0.2,1.5,0.6c0.4,0.4,0.6,0.9,0.6,1.5c0,0.6-0.2,1.1-0.6,1.5c-0.4,0.4-0.9,0.6-1.5,0.6c-0.6,0-1.1-0.2-1.5-0.6
			c-0.4-0.4-0.6-0.9-0.6-1.5c0-0.6,0.2-1.1,0.6-1.5C89.6,199.4,90.1,199.2,90.7,199.2z"/>
		<path class="st10" d="M100.8,174.5H122c2.8,0,5.2,2.3,5.2,5.2v21.9c0,2.8-2.3,5.2-5.2,5.2h-21.2c-2.8,0-5.2-2.3-5.2-5.2v-21.9
			C95.7,176.8,98,174.5,100.8,174.5"/>
		<path d="M132.5,175.5H90.4c-1.2,0-2.2,0.5-3,1.3c-0.8,0.8-1.3,1.8-1.3,3v21.7c0,1.2,0.5,2.2,1.3,3c0.8,0.8,1.8,1.3,3,1.3h42.1
			c1.2,0,2.2-0.5,3-1.3c0.8-0.8,1.3-1.8,1.3-3v-21.7c0-1.2-0.5-2.2-1.3-3C134.7,176,133.7,175.5,132.5,175.5 M90.4,173.5h42.1
			c1.7,0,3.3,0.7,4.4,1.8c1.1,1.1,1.8,2.7,1.8,4.4v21.7c0,1.7-0.7,3.3-1.8,4.4c-1.1,1.1-2.7,1.8-4.4,1.8H90.4
			c-1.7,0-3.3-0.7-4.4-1.8c-1.1-1.1-1.8-2.7-1.8-4.4v-21.7c0-1.7,0.7-3.3,1.8-4.4C87.1,174.2,88.7,173.5,90.4,173.5z"/>
		<path class="st11" d="M113.3,184.2l22.2-14.2c2.5-1.6,5.9-0.9,7.5,1.7v0c1.6,2.5,0.9,5.9-1.7,7.5l-22.2,14.2
			c-2.5,1.6-5.9,0.9-7.5-1.7l0,0C110,189.2,110.8,185.8,113.3,184.2"/>
		<path class="st11" d="M81.2,179.2l22.2,14.2c2.5,1.6,5.9,0.9,7.5-1.7v0c1.6-2.5,0.9-5.9-1.7-7.5L87.1,170
			c-2.5-1.6-5.9-0.9-7.5,1.7l0,0C78,174.2,78.7,177.6,81.2,179.2"/>
		<path class="st7" d="M120.4,187.1c0.6,3.3,0.9,4.9,0.9,4.9s6.9-4.4,20.6-13.2c2.1-1.2,2.9-3.9,1.8-6.1c-1.1-2.2-3.7-3.2-6-2.2
			c0.9,0.3,1.6,1.1,1.8,2c0.2,0.9,0.2,2-0.7,2.6C138.8,175.1,132.6,179.1,120.4,187.1"/>
		<path d="M136.2,171.1L114,185.3c-1,0.6-1.6,1.6-1.8,2.6c-0.2,1-0.1,2.2,0.5,3.2l0,0c0.6,1,1.6,1.6,2.6,1.8c1,0.2,2.2,0.1,3.2-0.5
			l22.2-14.2c1-0.6,1.6-1.6,1.8-2.6c0.2-1,0.1-2.2-0.5-3.1l0,0c-0.6-1-1.6-1.6-2.6-1.8C138.3,170.3,137.2,170.5,136.2,171.1
			L136.2,171.1z M112.6,183.1l22.1-14.1h0l0.1-0.1c1.6-1,3.4-1.3,5-0.9c1.6,0.3,3,1.2,4,2.6l0,0l0.2,0.3c1,1.6,1.3,3.4,0.9,5
			c-0.4,1.7-1.4,3.2-2.9,4.2l-22.2,14.2c-1.6,1-3.4,1.3-5,0.9c-1.7-0.4-3.2-1.4-4.2-2.9l0-0.1l0,0c-1-1.5-1.2-3.3-0.8-5
			C110,185.7,111.1,184.1,112.6,183.1z"/>
		<path class="st7" d="M102.6,187.1c-0.6,3.3-0.9,4.9-0.9,4.9s-6.9-4.4-20.6-13.2c-2.1-1.2-2.9-3.9-1.8-6.1c1.1-2.2,3.7-3.2,6-2.2
			c-0.9,0.3-1.6,1.1-1.8,2c-0.2,0.9-0.2,2,0.7,2.6C84.2,175.1,90.3,179.1,102.6,187.1"/>
		<path d="M102.7,194.4L102.7,194.4 M102.7,194.4l-22.2-14.1c-1.6-1-2.6-2.5-2.9-4.2c-0.4-1.7-0.1-3.4,0.8-5l0,0l0-0.1
			c1-1.6,2.5-2.6,4.2-2.9c1.7-0.4,3.5-0.1,5,0.9l22.2,14.2c1.6,1,2.6,2.5,2.9,4.2c0.4,1.7,0.1,3.5-0.9,5l-0.1,0.1l0,0
			c-1,1.5-2.5,2.4-4.1,2.8C106.2,195.7,104.3,195.4,102.7,194.4L102.7,194.4z M81.9,178.2l22.2,14.2l0,0c1,0.6,2.1,0.8,3.2,0.5
			c1-0.2,2-0.9,2.6-1.8l0,0c0.6-1,0.8-2.1,0.5-3.1c-0.2-1-0.9-2-1.8-2.6l-22.2-14.2c-1-0.6-2.1-0.8-3.2-0.5c-1,0.2-2,0.9-2.6,1.8
			l0,0c-0.6,1-0.8,2.1-0.5,3.2C80.3,176.6,80.9,177.5,81.9,178.2z"/>
		<path class="st12" d="M105.5,177.7h12c1.6,0,2.9,1.3,2.9,2.9v31c0,1.6-1.3,2.9-2.9,2.9h-12c-1.6,0-2.9-1.3-2.9-2.9v-31
			C102.5,179,103.9,177.7,105.5,177.7"/>
		<path class="st8" d="M108.5,177.7h5.8c0.8,0,1.4,0.6,1.4,1.4v34c0,0.8-0.6,1.4-1.4,1.4h-5.8c-0.8,0-1.4-0.6-1.4-1.4v-34
			C107.1,178.3,107.8,177.7,108.5,177.7"/>
		<path d="M117.4,179h-12c-0.5,0-0.9,0.2-1.2,0.5c-0.3,0.3-0.5,0.7-0.5,1.2v31c0,0.5,0.2,0.9,0.5,1.2c0.3,0.3,0.7,0.5,1.2,0.5h12
			c0.5,0,0.9-0.2,1.2-0.5c0.3-0.3,0.5-0.7,0.5-1.2v-31c0-0.5-0.2-0.9-0.5-1.2C118.3,179.1,117.9,179,117.4,179 M105.5,176.4h12
			c1.2,0,2.2,0.5,3,1.2c0.8,0.8,1.2,1.8,1.2,3v31c0,1.2-0.5,2.2-1.2,3c-0.8,0.8-1.8,1.2-3,1.2h-12c-1.2,0-2.2-0.5-3-1.2
			c-0.8-0.8-1.2-1.8-1.2-3v-31c0-1.2,0.5-2.2,1.2-3C103.3,176.9,104.3,176.4,105.5,176.4z"/>
		<path class="st7" d="M111.5,184.9c2.8,0,5.1,2.3,5.1,5.1c0,2.8-2.3,5.1-5.1,5.1c-2.8,0-5.1-2.3-5.1-5.1
			C106.4,187.2,108.7,184.9,111.5,184.9"/>
		<path d="M114.3,187.1c-0.7-0.7-1.8-1.2-2.9-1.2c-1.1,0-2.1,0.5-2.9,1.2c-0.7,0.7-1.2,1.8-1.2,2.9c0,1.1,0.5,2.1,1.2,2.9
			c0.7,0.7,1.8,1.2,2.9,1.2c1.1,0,2.1-0.5,2.9-1.2c0.7-0.7,1.2-1.8,1.2-2.9C115.5,188.9,115.1,187.9,114.3,187.1 M111.5,183.9
			c1.7,0,3.2,0.7,4.3,1.8c1.1,1.1,1.8,2.6,1.8,4.3c0,1.7-0.7,3.2-1.8,4.3c-1.1,1.1-2.6,1.8-4.3,1.8c-1.7,0-3.2-0.7-4.3-1.8
			c-1.1-1.1-1.8-2.6-1.8-4.3c0-1.7,0.7-3.2,1.8-4.3C108.3,184.6,109.8,183.9,111.5,183.9z"/>
		<path class="st6" d="M111.5,188.1c1.1,0,1.9,0.9,1.9,1.9c0,1.1-0.9,1.9-1.9,1.9c-1.1,0-1.9-0.9-1.9-1.9
			C109.6,189,110.4,188.1,111.5,188.1"/>
		<path d="M112.5,189c-0.3-0.3-0.6-0.4-1-0.4c-0.4,0-0.7,0.2-1,0.4c-0.3,0.3-0.4,0.6-0.4,1c0,0.4,0.2,0.7,0.4,1
			c0.3,0.3,0.6,0.4,1,0.4c0.4,0,0.7-0.2,1-0.4c0.3-0.3,0.4-0.6,0.4-1C112.9,189.6,112.7,189.3,112.5,189 M111.5,187.6
			c0.7,0,1.3,0.3,1.7,0.7c0.4,0.4,0.7,1,0.7,1.7c0,0.7-0.3,1.3-0.7,1.7c-0.4,0.4-1,0.7-1.7,0.7c-0.7,0-1.3-0.3-1.7-0.7
			c-0.4-0.4-0.7-1-0.7-1.7c0-0.7,0.3-1.3,0.7-1.7C110.2,187.9,110.8,187.6,111.5,187.6z"/>
		<path class="st13" d="M111.3,168.4c5.3,0,10.2,0.5,14.3,1.2c2.3-0.7,5.6-1.4,10.1-2.1c0,0,0,2.4,0,7.3c0,3.6-10.9,6.4-24.3,6.4
			c-13.4,0-24.3-2.9-24.3-6.4c0-4.9,0-7.3,0-7.3c3.5,0.9,6.3,1.7,8.4,2.5C99.6,169,105.2,168.4,111.3,168.4"/>
		<path class="st8" d="M111.3,168.4c3.4,0,6.6,0.5,9.2,1.2c1.5-0.7,3.6-1.4,6.5-2.1c0,0,0,2.4,0,7.3c0,3.6-7,6.4-15.6,6.4
			c-8.6,0-15.6-2.9-15.6-6.4c0-4.9,0-7.3,0-7.3c2.2,0.9,4,1.7,5.4,2.5C103.8,169,107.4,168.4,111.3,168.4"/>
		<path d="M118.7,170c-2.3-0.2-4.8-0.3-7.4-0.3c-3,0-5.8,0.1-8.4,0.4c-2.7,0.3-5.1,0.7-7.2,1.1c-0.2,0.1-0.5,0.1-0.7,0
			c-1-0.4-2.2-0.7-3.6-1.1c-1-0.3-2-0.6-3.1-0.9v5.7c0,1.1,2.4,2.3,6.2,3.3c4.3,1.1,10.3,1.8,16.9,1.8c6.6,0,12.6-0.7,16.9-1.8
			c3.8-1,6.2-2.2,6.2-3.3V169c-1.6,0.3-3.1,0.6-4.3,0.8c-1.6,0.3-3,0.7-4.1,1c-0.2,0.1-0.4,0.1-0.6,0
			C123.3,170.5,121.1,170.2,118.7,170 M111.3,167.1c2.6,0,5.2,0.1,7.6,0.3c2.4,0.2,4.6,0.5,6.6,0.9c1.1-0.3,2.5-0.6,4-1
			c1.7-0.4,3.7-0.7,5.9-1.1c0.7-0.1,1.3,0.3,1.4,1c0,0.1,0,0.1,0,0.2h0v7.3c0,2.4-3.1,4.4-8.1,5.8c-4.5,1.2-10.7,1.9-17.5,1.9
			c-6.8,0-13-0.7-17.5-1.9c-5-1.3-8.1-3.3-8.1-5.8v-7.3c0-0.7,0.6-1.3,1.3-1.3c0.1,0,0.3,0,0.4,0.1c1.7,0.5,3.3,0.9,4.7,1.3
			c1.3,0.4,2.4,0.7,3.4,1.1c2.1-0.5,4.6-0.9,7.2-1.1C105.4,167.3,108.3,167.1,111.3,167.1z"/>
		<path class="st8" d="M111.3,161.1c13.4,0,24.3,2.9,24.3,6.4c0,3.6-10.9,6.4-24.3,6.4c-13.4,0-24.3-2.9-24.3-6.4
			C87,164,97.9,161.1,111.3,161.1"/>
		<path class="st8" d="M111.3,161.1c10,0,18.1,2.9,18.1,6.4c0,3.6-8.1,6.4-18.1,6.4c-10,0-18.1-2.9-18.1-6.4
			C93.2,164,101.3,161.1,111.3,161.1"/>
		<path d="M128.2,164.2c-4.3-1.1-10.3-1.8-16.9-1.8c-6.6,0-12.6,0.7-16.9,1.8c-3.8,1-6.2,2.2-6.2,3.3c0,1.1,2.4,2.3,6.2,3.3
			c4.3,1.1,10.3,1.8,16.9,1.8c6.6,0,12.6-0.7,16.9-1.8c3.8-1,6.2-2.2,6.2-3.3C134.4,166.4,132,165.2,128.2,164.2 M111.3,159.8
			c6.8,0,13,0.7,17.5,1.9c5,1.3,8.1,3.3,8.1,5.8c0,2.4-3.1,4.4-8.1,5.8c-4.5,1.2-10.7,1.9-17.5,1.9c-6.8,0-13-0.7-17.5-1.9
			c-5-1.3-8.1-3.3-8.1-5.8c0-2.4,3.1-4.4,8.1-5.8C98.3,160.6,104.5,159.8,111.3,159.8z"/>
		<path class="st13" d="M111.5,114.6c13.3,0,24.1,10.3,24.1,23.1c0,1.1-0.1,2.2-0.2,3.3H87.7c-0.2-1.1-0.2-2.2-0.2-3.3
			C87.5,125,98.2,114.6,111.5,114.6"/>
		<path class="st8" d="M111.5,114.6c7.6,0,13.8,10.3,13.8,23.1c0,1.1,0,2.2-0.1,3.3H97.9c-0.1-1.1-0.1-2.2-0.1-3.3
			C97.7,125,103.9,114.6,111.5,114.6"/>
		<path d="M111.5,113.1c7.1,0,13.4,2.7,18.1,7.2c4.6,4.5,7.5,10.6,7.5,17.4c0,1.9-0.2,3.7-0.6,5.5h-3.1c0.5-1.8,0.7-3.6,0.7-5.5
			c0-5.9-2.5-11.3-6.6-15.2c-4.1-3.9-9.7-6.3-16-6.3c-6.3,0-11.9,2.4-16,6.3c-4.1,3.9-6.6,9.3-6.6,15.2c0,1.9,0.3,3.7,0.7,5.5h-3.1
			c-0.4-1.8-0.6-3.6-0.6-5.5c0-6.8,2.9-13,7.5-17.4C98.1,115.9,104.5,113.1,111.5,113.1"/>
		<path class="st7" d="M106.7,124.9h9c12.1,0,22.1,9.9,22.1,22.1c0,12.1-9.9,22.1-22.1,22.1h-9c-12.1,0-22.1-9.9-22.1-22.1
			C84.6,134.9,94.6,124.9,106.7,124.9"/>
		<path d="M115.7,126.2h-9c-5.7,0-10.9,2.3-14.7,6.1c-3.8,3.8-6.1,9-6.1,14.7c0,5.7,2.3,10.9,6.1,14.7c3.8,3.8,9,6.1,14.7,6.1h9
			c5.7,0,10.9-2.3,14.7-6.1c3.8-3.8,6.1-9,6.1-14.7c0-5.7-2.3-10.9-6.1-14.7C126.6,128.5,121.4,126.2,115.7,126.2 M106.7,123.7h9
			c6.4,0,12.2,2.6,16.5,6.9c4.2,4.2,6.9,10.1,6.9,16.5c0,6.4-2.6,12.2-6.9,16.5c-4.2,4.2-10.1,6.9-16.5,6.9h-9
			c-6.4,0-12.2-2.6-16.5-6.9c-4.2-4.2-6.9-10.1-6.9-16.5c0-6.4,2.6-12.2,6.9-16.5C94.5,126.3,100.3,123.7,106.7,123.7z"/>
		<path class="st7" d="M88.3,138.9c-0.8,0.2-1.5,0.4-2.3,0.6c-0.8,0.2-1.5,0.4-2.3,0.6c-0.7,0.2-1.3,0.9-1.3,1.5c0,2,0,3.9,0,5.9
			c0,1.9,0,3.9,0,5.9c0,0.6,0.6,1.3,1.3,1.5c0.8,0.2,1.6,0.4,2.3,0.6c0.8,0.2,1.5,0.4,2.3,0.6c0.7,0.2,1.3-0.3,1.3-1.1
			c0-2.5,0-4.9,0-7.4c0-2.5,0-4.9,0-7.4C89.7,139.2,89.1,138.7,88.3,138.9"/>
		<path d="M88.6,139.8C88.6,139.8,88.6,139.8,88.6,139.8C88.6,139.8,88.6,139.8,88.6,139.8L88.6,139.8z M88.6,139.8L88.6,139.8
			L88.6,139.8L88.6,139.8z M88.6,154.9C88.6,154.9,88.6,154.9,88.6,154.9L88.6,154.9L88.6,154.9z M84.4,155.9
			c-1.2-0.3,0.1,0,0.7,0.2C85.1,156.1,84.9,156.1,84.4,155.9z M87.1,138.1c2.8-0.7-3.3,0.8,1-0.3l0,0c0.2-0.1,0.4-0.1,0.6-0.1
			c0.5,0,0.9,0.2,1.3,0.4c0.3,0.3,0.6,0.7,0.7,1.1c0,0.2,0.1,0.4,0.1,0.6v7.4v7.4c0,0.2,0,0.4-0.1,0.6h0c-0.1,0.5-0.4,0.8-0.7,1.1
			c-0.4,0.3-0.8,0.4-1.3,0.4c-0.2,0-0.4,0-0.6-0.1c-1.7-0.4,0.3,0.1-1.1-0.3c-0.3-0.1,0.6,0.1-1.2-0.3c-1.3-0.3-1.1-0.3-0.8-0.2
			l-1.5-0.4c-0.6-0.1-1.1-0.5-1.4-0.9c-0.4-0.4-0.7-1-0.7-1.6v-5.9v-5.9c0-0.6,0.3-1.1,0.7-1.6c0.4-0.4,0.9-0.7,1.4-0.9
			c2.4-0.6,0.4-0.1,1.1-0.3c1.2-0.3,0,0,1.2-0.3C88.6,137.8,86.2,138.4,87.1,138.1z M86.9,140.2c0.6-0.2,1.7-0.4,0.6-0.2
			C87.2,140.2,87,140.2,86.9,140.2z M88.6,139.8c-0.8,0.2-1.4,0.3-1.7,0.4c0.1,0,0.4-0.1-0.7,0.2c-2.1,0.5-0.9,0.2-1.2,0.3
			c-1.4,0.4,0.6-0.1-1.1,0.3c-0.2,0-0.3,0.1-0.4,0.3c-0.1,0.1-0.1,0.2-0.1,0.2v5.9v5.9c0,0.1,0,0.1,0.1,0.2c0.1,0.1,0.3,0.2,0.4,0.3
			c4.4,1.1-1.9-0.5,1,0.3c1.2,0.3-2.1-0.5,1.3,0.3c1,0.2,0.1,0,1.2,0.3c0.7,0.2-1.4-0.4,1.1,0.3c0,0,0,0,0.1,0c0,0,0,0,0,0v0
			c0,0,0,0,0,0l0,0c0,0,0-0.1,0-0.1v-7.4V140C88.7,139.9,88.7,139.9,88.6,139.8C88.7,139.8,88.6,139.8,88.6,139.8
			C88.6,139.8,88.6,139.8,88.6,139.8C88.6,139.8,88.6,139.8,88.6,139.8L88.6,139.8z"/>
		<path class="st7" d="M134.2,138.9c0.8,0.2,1.5,0.4,2.3,0.6c0.8,0.2,1.5,0.4,2.3,0.6c0.7,0.2,1.3,0.9,1.3,1.5c0,2,0,3.9,0,5.9
			c0,1.9,0,3.9,0,5.9c0,0.6-0.6,1.3-1.3,1.5c-0.8,0.2-1.6,0.4-2.3,0.6c-0.8,0.2-1.5,0.4-2.3,0.6c-0.7,0.2-1.3-0.3-1.3-1.1
			c0-2.5,0-4.9,0-7.4c0-2.5,0-4.9,0-7.4C132.8,139.2,133.4,138.7,134.2,138.9"/>
		<path d="M133.9,139.8L133.9,139.8L133.9,139.8L133.9,139.8z M133.9,139.8C133.9,139.8,133.9,139.8,133.9,139.8L133.9,139.8
			C133.9,139.8,133.9,139.8,133.9,139.8z M133.9,154.9C133.9,154.9,133.9,154.9,133.9,154.9L133.9,154.9L133.9,154.9z M137.3,156.1
			c0.6-0.2,1.9-0.5,0.7-0.2C137.6,156.1,137.4,156.1,137.3,156.1z M135.6,140.3c-0.3-0.1-0.8-0.2-1.7-0.4v0c0,0,0,0-0.1,0
			c0,0,0,0,0,0c0,0,0,0,0,0c0,0,0,0.1,0,0.1v7.4v7.4c0,0,0,0.1,0,0.1l0,0c0,0,0,0,0,0v0c0,0,0,0,0,0c0,0,0,0,0.1,0
			c2.4-0.6,0.4-0.1,1.1-0.3c1.2-0.3,0.3-0.1,1.2-0.3c3.4-0.9,0.1,0,1.3-0.3c2.9-0.7-3.4,0.9,1-0.3c0.2,0,0.3-0.1,0.4-0.3
			c0.1-0.1,0.1-0.2,0.1-0.2v-5.9v-5.9c0-0.1,0-0.1-0.1-0.2c-0.1-0.1-0.3-0.2-0.4-0.3c-1.7-0.4,0.3,0.1-1.1-0.3
			c-0.4-0.1,0.8,0.2-1.2-0.3C135.2,140.2,135.4,140.2,135.6,140.3z M134.9,140.1c-1.1-0.3,0,0,0.6,0.2 M134.4,137.9
			c4.3,1.1-1.8-0.5,1,0.3c0.9,0.2-1.5-0.4,1.3,0.3c1.2,0.3,0,0,1.2,0.3c0.7,0.2-1.3-0.3,1.1,0.3c0.6,0.1,1.1,0.5,1.4,0.9
			c0.4,0.4,0.7,1,0.7,1.6v5.9v5.9c0,0.6-0.3,1.1-0.7,1.6c-0.4,0.4-0.9,0.7-1.4,0.9l-1.5,0.4c0.3-0.1,0.5-0.1-0.8,0.2
			c-1.8,0.5-0.9,0.2-1.2,0.3c-1.4,0.4,0.6-0.2-1.1,0.3c-0.2,0-0.4,0.1-0.6,0.1c-0.5,0-0.9-0.2-1.3-0.4c-0.3-0.3-0.6-0.7-0.7-1.1h0
			c0-0.2-0.1-0.4-0.1-0.6v-7.4V140c0-0.2,0-0.4,0.1-0.6c0.1-0.5,0.4-0.8,0.7-1.1c0.4-0.3,0.8-0.4,1.3-0.4
			C134,137.8,134.2,137.8,134.4,137.9L134.4,137.9z"/>
		<path class="st7" d="M103.7,130.5h15c9.1,0,16.5,7.4,16.5,16.5v0c0,9.1-7.4,16.5-16.5,16.5h-15c-9.1,0-16.5-7.4-16.5-16.5v0
			C87.2,137.9,94.6,130.5,103.7,130.5"/>
		<path d="M118.7,131.8h-15c-4.2,0-8,1.7-10.7,4.5c-2.8,2.8-4.5,6.6-4.5,10.7c0,8.4,6.8,15.2,15.2,15.2h15c4.2,0,8-1.7,10.7-4.5
			c2.8-2.8,4.5-6.6,4.5-10.7c0-4.2-1.7-8-4.5-10.7C126.6,133.5,122.8,131.8,118.7,131.8 M103.7,129.3h15c4.9,0,9.3,2,12.5,5.2
			c3.2,3.2,5.2,7.6,5.2,12.5c0,4.9-2,9.3-5.2,12.5c-3.2,3.2-7.6,5.2-12.5,5.2h-15c-9.7,0-17.7-8-17.7-17.7c0-4.9,2-9.3,5.2-12.5
			C94.4,131.3,98.8,129.3,103.7,129.3z"/>
		<path class="st14" d="M131.8,148.5c-0.7,6.1-6,10.9-12.3,10.9h-16.8c-6.3,0-11.6-4.8-12.3-10.9H131.8z"/>
		<path class="st11" d="M102.8,134.6h16.8c0.1,0,0.2,0,0.3,0l0,0c0.1,0,0.2,0,0.3,0l0,0c0.1,0,0.2,0,0.3,0l0,0c0.1,0,0.2,0,0.3,0
			l0,0c0.1,0,0.2,0,0.3,0l0,0c0.1,0,0.2,0,0.3,0l0,0c0.1,0,0.2,0,0.3,0l0,0c0.1,0,0.2,0,0.3,0.1l0.1,0c0.1,0,0.2,0,0.3,0.1l0.1,0
			c0.1,0,0.2,0,0.2,0.1l0.1,0c0.1,0,0.2,0,0.2,0.1l0.1,0c0.1,0,0.2,0,0.2,0.1l0,0c0.1,0,0.1,0,0.2,0.1l0.1,0c0.1,0,0.2,0.1,0.2,0.1
			l0.1,0c0.1,0,0.1,0.1,0.2,0.1l0.1,0c0.1,0,0.1,0.1,0.2,0.1l0.1,0c0.1,0,0.1,0.1,0.2,0.1l0.1,0c0.1,0,0.1,0.1,0.2,0.1
			c0,0,0.1,0,0.1,0c0.1,0,0.1,0.1,0.2,0.1c0,0,0.1,0,0.1,0.1c0.1,0,0.1,0.1,0.2,0.1c0,0,0.1,0,0.1,0.1c0.1,0,0.1,0.1,0.2,0.1
			c0,0,0.1,0,0.1,0.1c0.1,0,0.1,0.1,0.2,0.1c0,0,0.1,0,0.1,0.1c0.1,0,0.1,0.1,0.2,0.1c0,0,0.1,0,0.1,0.1c0,0,0.1,0.1,0.1,0.1
			c0,0,0.1,0.1,0.1,0.1c0,0,0.1,0,0.1,0.1c0,0,0.1,0.1,0.1,0.1c0,0,0.1,0,0.1,0.1c0,0,0.1,0.1,0.1,0.1c0,0,0.1,0,0.1,0.1
			c0,0,0.1,0.1,0.1,0.1c0,0,0.1,0.1,0.1,0.1c0,0,0.1,0.1,0.1,0.1c0,0,0.1,0.1,0.1,0.1c0,0,0.1,0.1,0.1,0.1c0,0,0,0,0.1,0.1
			c0.1,0,0.1,0.1,0.2,0.1c0,0,0,0,0.1,0.1c0.1,0,0.1,0.1,0.2,0.1l0.1,0.1c0.1,0.1,0.1,0.1,0.2,0.2l0.1,0.1c0.1,0.1,0.1,0.1,0.2,0.2
			c0,0,0,0,0.1,0.1c0,0,0.1,0.1,0.1,0.1l0,0c0,0,0.1,0.1,0.1,0.1c1.9,2.2,3.1,5,3.1,8.1c0,0.6-0.1,1.3-0.1,1.9H90.6
			c-0.1-0.6-0.1-1.3-0.1-1.9c0-3.1,1.2-6,3.1-8.1c0,0,0.1-0.1,0.1-0.1l0,0c0,0,0.1-0.1,0.1-0.1c0,0,0,0,0.1-0.1
			c0.1-0.1,0.1-0.1,0.2-0.2l0.1-0.1c0.1-0.1,0.1-0.1,0.2-0.2l0.1-0.1c0.1-0.1,0.1-0.1,0.2-0.2l0.1-0.1c0.1,0,0.1-0.1,0.2-0.1
			c0,0,0,0,0.1-0.1c0,0,0.1-0.1,0.1-0.1c0,0,0.1-0.1,0.1-0.1c0,0,0.1-0.1,0.1-0.1c0,0,0.1-0.1,0.1-0.1c0,0,0.1-0.1,0.1-0.1
			c0,0,0.1,0,0.1-0.1c0,0,0.1-0.1,0.2-0.1c0,0,0.1,0,0.1-0.1c0.1,0,0.1-0.1,0.2-0.1c0,0,0.1,0,0.1-0.1c0,0,0.1-0.1,0.1-0.1
			c0,0,0.1-0.1,0.1-0.1c0,0,0.1,0,0.1-0.1c0.1,0,0.1-0.1,0.2-0.1l0.1-0.1c0.1,0,0.1-0.1,0.2-0.1c0,0,0.1,0,0.1-0.1
			c0.1,0,0.1-0.1,0.2-0.1c0,0,0.1,0,0.1-0.1c0.1,0,0.1-0.1,0.2-0.1c0,0,0.1,0,0.1-0.1c0.1,0,0.1-0.1,0.2-0.1c0,0,0.1,0,0.1,0
			c0.1,0,0.1-0.1,0.2-0.1l0.1,0c0.1,0,0.1-0.1,0.2-0.1l0.1,0c0.1,0,0.1-0.1,0.2-0.1l0.1,0c0.1,0,0.1-0.1,0.2-0.1c0,0,0,0,0.1,0
			c0.1,0,0.2-0.1,0.2-0.1l0.1,0c0.1,0,0.1,0,0.2-0.1l0,0c0.1,0,0.2,0,0.2-0.1l0.1,0c0.1,0,0.2,0,0.2-0.1l0.1,0c0.1,0,0.2,0,0.2-0.1
			l0.1,0c0.1,0,0.2,0,0.3-0.1l0.1,0c0.1,0,0.2,0,0.3-0.1l0,0c0.1,0,0.2,0,0.3,0l0,0c0.1,0,0.2,0,0.3,0l0,0c0.1,0,0.2,0,0.3,0l0,0
			c0.1,0,0.2,0,0.3,0l0,0c0.1,0,0.2,0,0.3,0l0,0c0.1,0,0.2,0,0.3,0l0,0C102.6,134.6,102.7,134.6,102.8,134.6"/>
		<path class="st7" d="M103.9,144.9c0.3-2.3,1.1-4.5,2.4-6.5h-8.9c-1.2,2-1.9,4.2-2.2,6.5H103.9z M97.5,155.8l8.7-0.1
			c-1.5-2.4-2.3-5-2.4-7.7H95C95.2,150.7,96,153.4,97.5,155.8z"/>
	</g>
	<g>
		<path class="st4" d="M71.2,224c0.8,0.7,1.2,1.8,1.2,3.2v5.6h-2.6v-1.2c-0.5,0.9-1.5,1.4-3,1.4c-0.7,0-1.4-0.1-1.9-0.4
			c-0.5-0.3-1-0.6-1.3-1c-0.3-0.4-0.4-1-0.4-1.5c0-0.9,0.3-1.6,1-2.1s1.7-0.8,3.2-0.8h2.2c0-0.6-0.2-1.1-0.6-1.4
			c-0.4-0.3-0.9-0.5-1.7-0.5c-0.5,0-1,0.1-1.5,0.2c-0.5,0.2-0.9,0.4-1.3,0.7l-1-2c0.5-0.4,1.2-0.7,1.9-0.9s1.5-0.3,2.3-0.3
			C69.2,223,70.3,223.3,71.2,224z M68.8,230.7c0.4-0.2,0.6-0.6,0.8-1v-1h-1.9c-1.2,0-1.7,0.4-1.7,1.1c0,0.4,0.1,0.6,0.4,0.9
			c0.3,0.2,0.7,0.3,1.2,0.3C67.9,231.1,68.4,231,68.8,230.7z"/>
		<path class="st4" d="M76.2,232.7c-0.8-0.2-1.4-0.4-1.8-0.8l0.9-2c0.4,0.3,1,0.5,1.6,0.7c0.6,0.2,1.2,0.3,1.8,0.3
			c1.2,0,1.8-0.3,1.8-0.9c0-0.3-0.2-0.5-0.5-0.6c-0.3-0.1-0.8-0.2-1.5-0.3c-0.8-0.1-1.5-0.3-2-0.4c-0.5-0.2-1-0.4-1.3-0.8
			c-0.4-0.4-0.6-1-0.6-1.7c0-0.6,0.2-1.2,0.5-1.6c0.4-0.5,0.9-0.8,1.6-1.1c0.7-0.3,1.5-0.4,2.4-0.4c0.7,0,1.4,0.1,2.1,0.2
			c0.7,0.2,1.2,0.4,1.7,0.6l-0.9,2c-0.9-0.5-1.8-0.7-2.8-0.7c-0.6,0-1.1,0.1-1.4,0.3c-0.3,0.2-0.5,0.4-0.5,0.7
			c0,0.3,0.2,0.5,0.5,0.6c0.3,0.1,0.8,0.2,1.6,0.3c0.8,0.1,1.4,0.3,2,0.4c0.5,0.2,0.9,0.4,1.3,0.8c0.4,0.4,0.6,1,0.6,1.7
			c0,0.6-0.2,1.1-0.5,1.6c-0.4,0.5-0.9,0.8-1.6,1.1s-1.5,0.4-2.5,0.4C77.7,233,77,232.9,76.2,232.7z"/>
		<path class="st4" d="M91.5,232.4c-0.3,0.2-0.6,0.4-1,0.5c-0.4,0.1-0.8,0.2-1.3,0.2c-1.2,0-2.1-0.3-2.7-0.9c-0.6-0.6-1-1.5-1-2.6
			v-4h-1.5v-2.2h1.5v-2.4h2.8v2.4h2.4v2.2h-2.4v4c0,0.4,0.1,0.7,0.3,0.9c0.2,0.2,0.5,0.3,0.9,0.3c0.4,0,0.8-0.1,1.1-0.4L91.5,232.4z
			"/>
		<path class="st4" d="M97.5,223.3c0.6-0.2,1.2-0.4,2-0.4v2.6c-0.3,0-0.5,0-0.6,0c-0.8,0-1.4,0.2-1.9,0.7c-0.5,0.5-0.7,1.1-0.7,2
			v4.6h-2.8v-9.7h2.7v1.3C96.5,223.9,97,223.6,97.5,223.3z"/>
		<path class="st4" d="M103.3,232.3c-0.8-0.4-1.4-1-1.9-1.8c-0.5-0.8-0.7-1.6-0.7-2.6s0.2-1.8,0.7-2.6c0.5-0.8,1.1-1.4,1.9-1.8
			c0.8-0.4,1.7-0.6,2.8-0.6c1,0,1.9,0.2,2.7,0.6c0.8,0.4,1.4,1,1.9,1.8c0.5,0.8,0.7,1.6,0.7,2.6s-0.2,1.8-0.7,2.6
			c-0.5,0.8-1.1,1.4-1.9,1.8c-0.8,0.4-1.7,0.6-2.7,0.6C105.1,233,104.2,232.8,103.3,232.3z M107.9,229.9c0.5-0.5,0.7-1.1,0.7-2
			c0-0.8-0.2-1.5-0.7-2c-0.5-0.5-1.1-0.7-1.8-0.7c-0.7,0-1.3,0.2-1.8,0.7c-0.5,0.5-0.7,1.1-0.7,2c0,0.8,0.2,1.5,0.7,2
			c0.5,0.5,1.1,0.7,1.8,0.7C106.8,230.7,107.4,230.4,107.9,229.9z"/>
		<path class="st4" d="M122.5,224c0.7,0.7,1.1,1.8,1.1,3.2v5.6h-2.8v-5.1c0-0.8-0.2-1.3-0.5-1.7c-0.3-0.4-0.8-0.6-1.5-0.6
			c-0.7,0-1.3,0.2-1.7,0.7c-0.4,0.4-0.6,1.1-0.6,2v4.8h-2.8v-9.7h2.7v1.1c0.4-0.4,0.8-0.7,1.4-0.9c0.6-0.2,1.2-0.3,1.8-0.3
			C120.8,223,121.8,223.3,122.5,224z"/>
		<path class="st4" d="M133.9,224c0.8,0.7,1.2,1.8,1.2,3.2v5.6h-2.6v-1.2c-0.5,0.9-1.5,1.4-3,1.4c-0.7,0-1.4-0.1-1.9-0.4
			c-0.5-0.3-1-0.6-1.3-1c-0.3-0.4-0.4-1-0.4-1.5c0-0.9,0.3-1.6,1-2.1c0.7-0.5,1.7-0.8,3.2-0.8h2.2c0-0.6-0.2-1.1-0.6-1.4
			c-0.4-0.3-0.9-0.5-1.7-0.5c-0.5,0-1,0.1-1.5,0.2c-0.5,0.2-0.9,0.4-1.3,0.7l-1-2c0.5-0.4,1.2-0.7,1.9-0.9c0.7-0.2,1.5-0.3,2.3-0.3
			C132,223,133.1,223.3,133.9,224z M131.5,230.7c0.4-0.2,0.6-0.6,0.8-1v-1h-1.9c-1.2,0-1.7,0.4-1.7,1.1c0,0.4,0.1,0.6,0.4,0.9
			c0.3,0.2,0.7,0.3,1.2,0.3C130.7,231.1,131.2,231,131.5,230.7z"/>
		<path class="st4" d="M147.9,223.1v9.7h-2.7v-1.2c-0.4,0.4-0.8,0.7-1.3,1c-0.5,0.2-1.1,0.3-1.7,0.3c-1.3,0-2.3-0.4-3-1.1
			c-0.7-0.7-1.1-1.8-1.1-3.3v-5.5h2.8v5.1c0,1.6,0.7,2.4,2,2.4c0.7,0,1.2-0.2,1.6-0.7c0.4-0.4,0.6-1.1,0.6-2v-4.8H147.9z"/>
		<path class="st4" d="M157.1,232.4c-0.3,0.2-0.6,0.4-1,0.5c-0.4,0.1-0.8,0.2-1.3,0.2c-1.2,0-2.1-0.3-2.7-0.9c-0.6-0.6-1-1.5-1-2.6
			v-4h-1.5v-2.2h1.5v-2.4h2.8v2.4h2.4v2.2H154v4c0,0.4,0.1,0.7,0.3,0.9c0.2,0.2,0.5,0.3,0.9,0.3c0.4,0,0.8-0.1,1.1-0.4L157.1,232.4z
			"/>
	</g>
</g>
<g>
	<g>
		<path class="st5" d="M156.9,72.4h-1.5v2.5h-2.7v-9.5h4.3c0.9,0,1.6,0.1,2.2,0.4c0.6,0.3,1.1,0.7,1.5,1.2c0.3,0.5,0.5,1.1,0.5,1.9
			c0,0.7-0.2,1.3-0.5,1.8c-0.3,0.5-0.8,0.9-1.4,1.2l2,3h-2.9L156.9,72.4z M158.1,67.9c-0.3-0.2-0.7-0.4-1.2-0.4h-1.5v2.8h1.5
			c0.6,0,1-0.1,1.2-0.4c0.3-0.2,0.4-0.6,0.4-1S158.4,68.2,158.1,67.9z"/>
	</g>
	<path class="st5" d="M156.8,79.7c-5.3,0-9.6-4.3-9.6-9.6c0-5.3,4.3-9.6,9.6-9.6c5.3,0,9.6,4.3,9.6,9.6
		C166.4,75.3,162.1,79.7,156.8,79.7z M156.8,63.1c-3.8,0-6.9,3.1-6.9,6.9c0,3.8,3.1,6.9,6.9,6.9c3.8,0,6.9-3.1,6.9-6.9
		C163.7,66.2,160.6,63.1,156.8,63.1z"/>
</g>
</svg>
