<?xml version="1.0" encoding="utf-8"?>
<!-- Generator: Adobe Illustrator 24.0.2, SVG Export Plug-In . SVG Version: 6.00 Build 0)  -->
<svg version="1.1" id="Camada_1" xmlns="http://www.w3.org/2000/svg" xmlns:xlink="http://www.w3.org/1999/xlink" x="0px" y="0px"
	 viewBox="0 0 1600 1181.1" style="enable-background:new 0 0 1600 1181.1;" xml:space="preserve">
<style type="text/css">
	.st0{fill:#003B99;}
</style>
<g>
	<g>
		<path class="st0" d="M754.8,708.7c0-224.3,0-433.5,0-646.9c105.7-2,210.2-11.3,309.4,33.8c48.7,22.1,88.3,55.8,110.2,104.6
			c53.2,118.4,52.9,238-6.4,354c-33,64.6-89,110-159.5,124.1C926.9,694.5,842.9,698.7,754.8,708.7z"/>
		<path class="st0" d="M713.1,60.3c0,215.5,0,426,0,639.7c0,1.6-73.2,1.1-79.8,0.4c-25.7-2.8-71.5,5.6-71.5-45.6
			c0-35.9,33.9-35.2,53.2-42.7c16.5-6.5,36.5-8.6,48.7-22.8c13.1-15.2,10.3-40.3-3.4-54.9c-17.9-19-42.8-16.6-66.5-17
			c-28.9-0.6-68.5,5.4-86-23.9c-8.6-14.4-7.7-34.3,3.1-47.2c23.1-27.2,69.8-19.2,100.9-19.7c31.5-0.5,60.7-9.6,60.8-45.7
			c0.1-36.2-29.7-45.3-60.8-45.9c-34.1-0.7-68.2,0.2-102.2-0.4c-40.2-0.6-68.8-19.6-65.3-45.9c5-38.4,34.7-44.4,66.9-44.5
			c34.1,0,68.2,0.9,102.2-0.4c30.8-1.1,59.9-10.5,59.2-47.5c-0.7-34.5-29.3-43.5-58.2-44.4c-58.5-2.1-117.3,0.7-175.8-1.4
			c-26.7-2.2-50.3-12.9-51.8-42.1c-1.7-32.5,23.9-45.8,51.3-46.8C530.4,58.9,619.9,60.8,713.1,60.3z"/>
	</g>
	<g>
		<path class="st0" d="M1231.1,857.9c25.1-6.3,45.5-15.1,66.1-15.8c50.7-1.6,75.5,23.3,77.1,74.2c1,31.8-0.1,63.6,0.3,95.4
			c0.2,17.7-8.4,24-25.2,24c-16.7,0-25.5-6-25.3-23.8c0.4-30.9-0.3-61.8,0-92.7c0.3-21.8-9.8-31.2-31.6-30.9
			c-21.3,0.3-32.1,8.8-31.6,31.1c0.6,30-0.6,60,0.3,90c0.5,18.7-7,26.6-25.5,26.3c-17.5-0.3-23.9-8.6-23.5-25.6
			c0.7-30.9-0.1-61.8,0.2-92.7c0.2-21.2-11-28.8-30.7-29c-19.1-0.2-32.2,5.9-32.5,27.3c-0.3,27.3,0.1,54.5-0.4,81.8
			c-0.3,17.2,5.7,38.1-24.1,38.3c-31.3,0.2-25.4-21.4-25.7-39.8c-0.3-21.8,0.1-43.6-0.1-65.4c-0.3-32.1,3.3-62.4,35.8-79.5
			C1166.8,834.2,1204.1,838.4,1231.1,857.9z"/>
		<path class="st0" d="M144.8,850.1c0-17,0.1-37.8,0-58.6c-0.1-16.6,8.9-21.7,24.3-21.7c15,0,25.1,4.1,25.1,21
			c-0.3,60,1,120-1.7,179.8c-1.7,38.1-26.3,61.7-63.9,66.7c-17.8,2.3-36.5,2.4-54.2-0.4c-43.6-6.8-62.1-35-62.3-90.7
			c-0.2-66,16.5-96.8,61.3-102.5C95.3,840.8,118.5,847.4,144.8,850.1z M144.6,939.7c-0.1-41.6-7.6-51-41.1-51.2
			c-33.7-0.1-41.4,9.3-41.5,50.8c0,3.6-0.1,7.2,0,10.8c1,35.7,13.7,46.8,49.1,43.1C138.5,990.4,144.7,980.5,144.6,939.7z"/>
		<path class="st0" d="M613.6,1025.4c0,22.2-0.2,42.7,0.1,63.3c0.2,16.2-7.5,22.5-23.3,22.5c-16,0-26.4-4.3-26.3-22.7
			c0.3-57.2-1.6-114.4,0.9-171.5c2.2-50.1,35.4-75.8,91.1-75.7c56.9,0.1,86.2,24.5,90.2,76c1.1,13.5,1,27.2,0.3,40.8
			c-3.7,70.2-59,101.8-122.5,70.2C621.8,1027.3,619.2,1027,613.6,1025.4z M696.2,942.2c0.1-45.2-6.3-53.7-40.6-53.7
			c-34.5,0-42,9.6-41.9,53.3c0,4.5,0.1,9,0.1,13.6c-0.1,25.9,13.2,37.6,38.6,38.2C687,994.4,696.1,984.1,696.2,942.2z"/>
		<path class="st0" d="M1496.7,1039c-51.8,7.9-60.4-26.1-68.2-61.6c-7.3-33.7-16.2-67.2-23.3-101c-2.3-11-10.8-27,10.3-29.8
			c16.5-2.2,33.4-2.8,38.2,20c7.2,34.7,14.4,69.5,23.5,103.7c2.6,9.7,11.9,17.6,18.2,26.4c6.1-8.8,15-16.9,17.6-26.7
			c8.6-32.5,13.5-66,23.1-98.1c3.1-10.2,15.3-22,25.6-24.8c19.5-5.3,30.8,1.8,24.5,26.4c-14.6,57.2-26.4,115.2-40.7,172.5
			c-9.7,39.1-32.6,66.6-74.6,74c-13,2.3-25.2,4-29.8-14c-4.4-16.9,1.4-23.8,17.2-30.1c14.3-5.7,26-18,38.8-27.3
			C1497,1045.4,1496.8,1042.2,1496.7,1039z"/>
		<path class="st0" d="M530.4,939.2c0.1,81-46.5,117.1-125.7,96.9c-7.8-2-15.8-4.9-22.5-9.3c-45.6-29.9-34-76.5-31.8-118.7
			c1.7-33.1,22.9-54.2,55.5-62.4c5.3-1.3,10.5-2.8,15.9-3.5C495.5,832.4,530.4,863.7,530.4,939.2z M480.7,940.1c0-2.7,0-5.4,0-8.1
			c-0.4-34.2-8.9-43.3-40.3-43.5c-32.7-0.1-41.6,9.3-41.9,44.8c-0.1,5.4-0.1,10.8,0,16.3c0.5,34.7,12.1,45.7,46,43.8
			C474.3,991.8,480.8,982.3,480.7,940.1z"/>
		<path class="st0" d="M883.7,920c6-25.9-5.2-35.3-26.4-35.8c-14.5-0.3-29.3,2.3-43.5,0.4c-7.6-1-20.4-8.9-20.3-13.4
			c0.3-8.8,6.4-23.6,12.8-25.2c35.9-8.7,73.1-9.9,105.2,11.3c11.2,7.4,20.8,24.3,22.2,37.8c3.2,31.5,2.9,63.6,0.5,95.3
			c-2.6,34.3-29.6,49.2-81.5,49.1c-51.4-0.1-77.2-15.8-81.8-49.8c-4.9-35.8,14.7-61.7,51.9-66.5C842.4,920.8,862.5,921.1,883.7,920z
			 M889.3,963.4c-2.6-3.4-5.3-6.7-7.9-10.1c-19.7,5.6-39.5,10.7-58.7,17.6c-1.2,0.4,1.1,20,3.8,20.5c15.3,3.1,32.4,7,46.5,2.7
			C880.8,991.9,884,974.2,889.3,963.4z"/>
		<path class="st0" d="M308.4,841.4c16.1-1.7,25.5,4.5,26.1,24c0.5,18.4-7.4,24.3-24.4,23.2c-21.2-1.3-28.8,10.2-28.4,30.3
			c0.6,29.9-0.3,59.9,0.2,89.8c0.3,17.6-5.4,27-24.8,27.2c-21,0.3-26.4-10.3-26-28.8c0.7-30.8-0.3-61.7,0.3-92.5
			C232.6,865.9,258.2,841.4,308.4,841.4z"/>
		<path class="st0" d="M970.4,956.4c0-18.1-1.2-36.4,0.2-54.4c3.3-41.5,46.5-71.9,86.2-59.1c7.2,2.3,13.3,17.3,14,26.9
			c0.4,5.7-10.8,17.9-16.3,17.7c-31.3-1.6-36.1,15.6-34.9,41.2c1.3,27.1-0.2,54.4,0.4,81.6c0.4,18.8-8.4,25.7-26.5,25.6
			c-17.5-0.2-24.4-8.2-23.9-25c0.5-18.1,0.1-36.3,0.1-54.4C970,956.4,970.2,956.4,970.4,956.4z"/>
	</g>
</g>
</svg>
