<?xml version="1.0" encoding="utf-8"?>
<!-- Generator: Adobe Illustrator 24.0.2, SVG Export Plug-In . SVG Version: 6.00 Build 0)  -->
<svg version="1.1" id="Camada_1" xmlns="http://www.w3.org/2000/svg" xmlns:xlink="http://www.w3.org/1999/xlink" x="0px" y="0px"
	 viewBox="0 0 956.3 186.7" style="enable-background:new 0 0 956.3 186.7;" xml:space="preserve">
<g>
	<path d="M105.9,186.7c0-64.5,0-124.7,0-186c30.4-0.6,60.5-3.2,89,9.7c14,6.4,25.4,16,31.7,30.1c15.3,34.1,15.2,68.5-1.8,101.8
		c-9.5,18.6-25.6,31.6-45.9,35.7C155.4,182.6,131.2,183.8,105.9,186.7z"/>
	<path d="M93.9,0.2c0,62,0,122.5,0,184c-10.8,0-21.2,1.4-30.9-0.6c-5.1-1-9.1-7.9-13.6-12.1c4.5-4.2,8.3-10.6,13.6-12.2
		c9.1-2.8,20.6-2.7,18.9-15.8c-1.6-12.2-12.8-11.7-22.4-11.9c-3.9-0.1-7.9,0.1-11.8-0.2c-7.8-0.6-14.3-4-14.6-12.4
		c-0.4-8.7,6.5-12.1,13.9-13.2c5.8-0.8,11.7-0.3,17.6-0.4c9-0.1,17.5-2.8,17.5-13.1c0-10.4-8.6-13-17.5-13.2
		c-9.8-0.2-19.6,0-29.4-0.1c-11.6-0.2-19.8-5.6-18.8-13.2c1.4-11,10-12.8,19.2-12.8c9.8,0,19.6,0.3,29.4-0.1c8.9-0.3,17.2-3,17-13.7
		c-0.2-9.9-8.4-12.5-16.7-12.8c-13.3-0.4-26.7-0.2-40-0.2c-3.5,0-7.1,0.1-10.6-0.2C7.2,25.5,0.5,22.4,0,14
		C-0.5,4.7,6.9,0.8,14.8,0.6c18.8-0.7,37.6-0.3,56.4-0.4C78.6,0.2,85.9,0.2,93.9,0.2z"/>
	<path d="M802.6,65.3c10.8-2.7,19.6-6.5,28.5-6.8c21.9-0.7,32.5,10,33.2,32c0.4,13.7,0,27.4,0.1,41.1c0.1,7.6-3.6,10.3-10.8,10.4
		c-7.2,0-11-2.6-10.9-10.3c0.2-13.3-0.1-26.6,0-39.9c0.1-9.4-4.2-13.4-13.6-13.3c-9.2,0.1-13.8,3.8-13.6,13.4
		c0.3,12.9-0.2,25.8,0.1,38.8c0.2,8.1-3,11.5-11,11.3c-7.6-0.1-10.3-3.7-10.1-11c0.3-13.3-0.1-26.6,0.1-39.9
		c0.1-9.1-4.7-12.4-13.2-12.5c-8.2-0.1-13.9,2.6-14,11.8c-0.1,11.7,0,23.5-0.2,35.2c-0.1,7.4,2.4,16.4-10.4,16.5
		c-13.5,0.1-11-9.2-11.1-17.1c-0.1-9.4,0-18.8,0-28.2c-0.1-13.8,1.4-26.9,15.4-34.2C774.9,55.2,791,57,802.6,65.3z"/>
	<path d="M334.7,62c0-7.3,0-16.3,0-25.3c0-7.1,3.8-9.4,10.5-9.3c6.5,0,10.8,1.8,10.8,9c-0.1,25.8,0.4,51.7-0.7,77.5
		c-0.8,16.4-11.3,26.6-27.5,28.7c-7.7,1-15.7,1-23.3-0.2c-18.8-2.9-26.8-15.1-26.8-39.1c-0.1-28.4,7.1-41.7,26.4-44.2
		C313.4,58,323.4,60.8,334.7,62z M334.7,100.6c0-17.9-3.3-22-17.7-22c-14.5-0.1-17.8,4-17.9,21.9c0,1.6,0,3.1,0,4.7
		c0.4,15.4,5.9,20.2,21.1,18.6C332,122.4,334.7,118.2,334.7,100.6z"/>
	<path d="M536.6,137.5c0,9.6-0.1,18.4,0,27.3c0.1,7-3.2,9.7-10.1,9.7c-6.9,0-11.4-1.9-11.3-9.8c0.1-24.6-0.7-49.3,0.4-73.9
		c0.9-21.6,15.2-32.6,39.2-32.6c24.5,0,37.1,10.6,38.9,32.7c0.5,5.8,0.4,11.7,0.1,17.6c-1.6,30.2-25.4,43.8-52.7,30.2
		C540.2,138.3,539.1,138.2,536.6,137.5z M572.2,101.7c0.1-19.5-2.7-23.1-17.5-23.1c-14.9,0-18.1,4.1-18.1,23c0,1.9,0,3.9,0,5.8
		c-0.1,11.1,5.7,16.2,16.6,16.4C568.3,124.1,572.2,119.7,572.2,101.7z"/>
	<path d="M917,143.4c-22.3,3.4-26-11.2-29.4-26.5c-3.2-14.5-7-28.9-10-43.5c-1-4.8-4.7-11.6,4.5-12.8c7.1-0.9,14.4-1.2,16.4,8.6
		c3.1,14.9,6.2,29.9,10.1,44.7c1.1,4.2,5.1,7.6,7.8,11.4c2.6-3.8,6.5-7.3,7.6-11.5c3.7-14,5.8-28.4,10-42.3c1.3-4.4,6.6-9.5,11-10.7
		c8.4-2.3,13.3,0.8,10.5,11.4c-6.3,24.7-11.4,49.6-17.5,74.3c-4.2,16.8-14.1,28.7-32.1,31.9c-5.6,1-10.8,1.7-12.9-6
		c-1.9-7.3,0.6-10.2,7.4-13c6.2-2.5,11.2-7.7,16.7-11.8C917.1,146.1,917,144.7,917,143.4z"/>
	<path d="M500.8,100.4c0,34.9-20,50.4-54.1,41.7c-3.4-0.9-6.8-2.1-9.7-4c-19.6-12.9-14.6-33-13.7-51.1c0.7-14.2,9.9-23.3,23.9-26.9
		c2.3-0.6,4.5-1.2,6.9-1.5C485.8,54.4,500.8,67.8,500.8,100.4z M479.4,100.8c0-1.2,0-2.3,0-3.5c-0.2-14.7-3.8-18.7-17.4-18.7
		c-14.1-0.1-17.9,4-18.1,19.3c0,2.3,0,4.7,0,7c0.2,14.9,5.2,19.7,19.8,18.9C476.6,123,479.4,118.9,479.4,100.8z"/>
	<path d="M653,92.1c2.6-11.1-2.3-15.2-11.4-15.4c-6.3-0.1-12.6,1-18.7,0.2c-3.3-0.4-8.8-3.9-8.7-5.8c0.1-3.8,2.8-10.2,5.5-10.8
		c15.5-3.7,31.5-4.3,45.3,4.8c4.8,3.2,9,10.5,9.6,16.3c1.4,13.6,1.2,27.4,0.2,41c-1.1,14.8-12.8,21.2-35.1,21.1
		c-22.1-0.1-33.3-6.8-35.2-21.4c-2.1-15.4,6.3-26.6,22.4-28.6C635.2,92.4,643.8,92.6,653,92.1z M655.4,110.8
		c-1.1-1.5-2.3-2.9-3.4-4.4c-8.5,2.4-17,4.6-25.3,7.6c-0.5,0.2,0.5,8.6,1.6,8.8c6.6,1.3,14,3,20,1.2
		C651.7,123.1,653.1,115.5,655.4,110.8z"/>
	<path d="M405.2,58.2c6.9-0.8,11,1.9,11.2,10.3c0.2,7.9-3.2,10.4-10.5,10c-9.1-0.6-12.4,4.4-12.2,13c0.3,12.9-0.1,25.8,0.1,38.7
		c0.1,7.6-2.3,11.6-10.7,11.7c-9,0.1-11.4-4.4-11.2-12.4c0.3-13.3-0.1-26.6,0.1-39.9C372.5,68.8,383.6,58.2,405.2,58.2z"/>
	<path d="M690.3,107.8c0-7.8-0.5-15.7,0.1-23.4c1.4-17.9,20-31,37.1-25.5c3.1,1,5.7,7.5,6,11.6c0.2,2.5-4.6,7.7-7,7.6
		c-13.5-0.7-15.6,6.7-15,17.8c0.6,11.7-0.1,23.4,0.2,35.1c0.2,8.1-3.6,11.1-11.4,11c-7.5-0.1-10.5-3.5-10.3-10.8
		c0.2-7.8,0.1-15.6,0.1-23.4C690.1,107.8,690.2,107.8,690.3,107.8z"/>
</g>
</svg>
