<?xml version="1.0" encoding="utf-8"?>
<!-- Generator: Adobe Illustrator 24.0.2, SVG Export Plug-In . SVG Version: 6.00 Build 0)  -->
<svg version="1.1" id="Camada_1" xmlns="http://www.w3.org/2000/svg" xmlns:xlink="http://www.w3.org/1999/xlink" x="0px" y="0px"
	 viewBox="0 0 1600 1181.1" style="enable-background:new 0 0 1600 1181.1;" xml:space="preserve">
<style type="text/css">
	.st0{opacity:0.2;fill:url(#SVGID_1_);enable-background:new    ;}
	.st1{opacity:0.2;fill:url(#SVGID_2_);enable-background:new    ;}
	.st2{opacity:0.25;fill:url(#SVGID_3_);enable-background:new    ;}
	.st3{opacity:0.25;fill:url(#SVGID_4_);enable-background:new    ;}
	.st4{opacity:0.2;fill:url(#SVGID_5_);enable-background:new    ;}
	.st5{fill:#FFFFFF;}
	.st6{fill:#A27BFC;}
	.st7{opacity:0.2;fill:url(#SVGID_6_);enable-background:new    ;}
	.st8{opacity:0.25;fill:url(#SVGID_7_);enable-background:new    ;}
	.st9{opacity:0.25;fill:url(#SVGID_8_);enable-background:new    ;}
</style>
<g>
	
		<linearGradient id="SVGID_1_" gradientUnits="userSpaceOnUse" x1="-39.6839" y1="353.8079" x2="-466.4851" y2="443.741" gradientTransform="matrix(1 0 0 -1 0 1184)">
		<stop  offset="0" style="stop-color:#F2B224"/>
		<stop  offset="1" style="stop-color:#0000FF"/>
	</linearGradient>
	<circle class="st0" cx="-433.5" cy="747.2" r="266.3"/>
	
		<linearGradient id="SVGID_2_" gradientUnits="userSpaceOnUse" x1="-724.3495" y1="1202.1101" x2="-905.6829" y2="826.999" gradientTransform="matrix(1 0 0 -1 0 1184)">
		<stop  offset="0" style="stop-color:#F2B224"/>
		<stop  offset="1" style="stop-color:#00FF00"/>
	</linearGradient>
	<circle class="st1" cx="-857.2" cy="256.8" r="310.6"/>
	
		<linearGradient id="SVGID_3_" gradientUnits="userSpaceOnUse" x1="-1599.1332" y1="543.9819" x2="-1048.8562" y2="341.1884" gradientTransform="matrix(1 0 0 -1 0 1184)">
		<stop  offset="0" style="stop-color:#A7679F"/>
		<stop  offset="8.513689e-02" style="stop-color:#B15C8D"/>
		<stop  offset="0.4011" style="stop-color:#D23551"/>
		<stop  offset="0.6699" style="stop-color:#EA1825"/>
		<stop  offset="0.878" style="stop-color:#F9070A"/>
		<stop  offset="1" style="stop-color:#FF0000"/>
	</linearGradient>
	<circle class="st2" cx="-1291.7" cy="753.3" r="280.7"/>
</g>
<linearGradient id="SVGID_4_" gradientUnits="userSpaceOnUse" x1="2806.106" y1="848.4132" x2="3647.7854" y2="778.8255" gradientTransform="matrix(-1 0 0 1 1600 -483.2001)">
	<stop  offset="0" style="stop-color:#009BCC"/>
	<stop  offset="1" style="stop-color:#C5CB4E"/>
</linearGradient>
<path class="st3" d="M-1064.1,328c0-225.2-327.6-416.1-456.3-482.4c-32-16.5-70.1-16.5-102.1,0C-1751.4-88.1-2079,102.8-2079,328
	c0,280.2,227.2,507.4,507.4,507.4C-1291.3,835.4-1064.1,608.2-1064.1,328z"/>
<linearGradient id="SVGID_5_" gradientUnits="userSpaceOnUse" x1="875.7917" y1="-1276.0797" x2="1391.5071" y2="-1318.7177" gradientTransform="matrix(1 0 0 -1 0 1184)">
	<stop  offset="0" style="stop-color:#F2B224"/>
	<stop  offset="0.457" style="stop-color:#E4704B"/>
	<stop  offset="1" style="stop-color:#D13F8A"/>
</linearGradient>
<circle class="st4" cx="1099.8" cy="2478.6" r="310.6"/>
<g>
	<g>
		<path class="st5" d="M380.9,1176.6c-1.6,0-3.1-0.7-4.1-1.8l-48.7-54.9l-20.5,20.4v30.9c0,3-2.5,5.5-5.5,5.5h-13.6
			c-3,0-5.5-2.5-5.5-5.5V1045c0-3,2.5-5.5,5.5-5.5H302c3,0,5.5,2.5,5.5,5.5v62.8l66.2-66.7c1-1,2.4-1.6,3.9-1.6h15.6
			c2.2,0,4.2,1.3,5.1,3.4c0.9,2,0.4,4.4-1.1,6l-52.2,53.5l56.3,65.2c1.4,1.6,1.7,3.9,0.8,5.9s-2.8,3.2-5,3.2h-16.2L380.9,1176.6
			L380.9,1176.6z"/>
		<path class="st5" d="M393.2,1045L393.2,1045 M393.2,1045l-55.7,57.1l59.6,69h-16.2l-52.6-59.3L302,1138v33.1h-13.6V1045H302v76.2
			l75.6-76.2H393.2 M393.2,1034L393.2,1034h-15.6c-2.9,0-5.7,1.2-7.8,3.3l-56.8,57.2V1045c0-6.1-4.9-11-11-11h-13.6
			c-6.1,0-11,4.9-11,11v126.1c0,6.1,4.9,11,11,11H302c6.1,0,11-4.9,11-11v-28.6l14.8-14.7l44.9,50.6c2.1,2.4,5.1,3.7,8.2,3.7H397
			c4.3,0,8.2-2.5,10-6.4s1.1-8.5-1.7-11.8l-53-61.4l48.6-49.8c2-2,3.2-4.7,3.2-7.8C404.2,1038.9,399.3,1034,393.2,1034L393.2,1034z
			 M393.2,1056L393.2,1056L393.2,1056L393.2,1056z"/>
	</g>
	<g>
		<path class="st5" d="M708.2,1176.6c-1.8,0-3.4-0.8-4.5-2.3l-27.6-38c-2.5,0.2-5.1,0.3-7.7,0.3h-29.1v34.5c0,3-2.5,5.5-5.5,5.5
			h-13.6c-3,0-5.5-2.5-5.5-5.5V1045c0-3,2.5-5.5,5.5-5.5h48.2c17.7,0,31.8,4.3,42.1,12.8c10.6,8.7,16,20.8,16,35.9
			c0,11-2.9,20.5-8.7,28.2c-4.4,5.9-10.3,10.6-17.5,13.9l27.2,37.5c1.2,1.7,1.4,3.9,0.5,5.7c-0.9,1.8-2.8,3-4.9,3L708.2,1176.6
			L708.2,1176.6z M668.1,1114.3c11.4,0,20-2.4,25.8-7c5.4-4.5,8.1-10.7,8.1-19c0-8.5-2.6-14.8-8.1-19.2c-5.7-4.6-14.4-7-25.8-7
			h-28.7v52.2H668.1z"/>
		<path class="st5" d="M668.5,1045c16.4,0,29.3,3.8,38.6,11.5s14,18.3,14,31.7c0,9.8-2.5,18.2-7.6,24.9
			c-5.1,6.8-12.4,11.7-21.8,14.7l31.4,43.2h-14.9l-29.4-40.5c-3.3,0.4-6.7,0.5-10.3,0.5h-34.6v40h-13.6v-126L668.5,1045
			 M633.9,1119.8h34.2c12.7,0,22.5-2.8,29.2-8.3s10.1-13.3,10.1-23.2c0-10.2-3.4-18-10.1-23.5c-6.7-5.5-16.5-8.2-29.2-8.2h-34.2
			V1119.8 M668.5,1034h-48.2c-6.1,0-11,4.9-11,11v126.1c0,6.1,4.9,11,11,11h13.6c6.1,0,11-4.9,11-11v-29h23.6c1.7,0,3.4,0,5-0.1
			l25.8,35.6c2.1,2.9,5.4,4.5,8.9,4.5h14.9c4.1,0,7.9-2.3,9.8-6c1.9-3.7,1.5-8.1-0.9-11.5l-23.5-32.4c5.5-3.4,10.1-7.5,13.8-12.5
			c6.5-8.7,9.8-19.3,9.8-31.5c0-16.8-6-30.3-18-40.2C702.8,1038.7,687.5,1034,668.5,1034L668.5,1034z M644.9,1067.5h23.2
			c10.1,0,17.6,1.9,22.3,5.7c2.6,2.1,6,5.9,6,15c0,8.7-3.5,12.6-6.1,14.7c-4.7,3.8-12.2,5.8-22.3,5.8h-23.2L644.9,1067.5
			L644.9,1067.5z"/>
	</g>
	<g>
		<path class="st5" d="M942.7,1176.6c-3,0-5.5-2.5-5.5-5.5V1045c0-3,2.5-5.5,5.5-5.5h13.6c3,0,5.5,2.5,5.5,5.5v126.1
			c0,3-2.5,5.5-5.5,5.5H942.7z"/>
		<path class="st5" d="M956.3,1045v126.1h-13.6V1045H956.3 M956.3,1034h-13.6c-6.1,0-11,4.9-11,11v126.1c0,6.1,4.9,11,11,11h13.6
			c6.1,0,11-4.9,11-11V1045C967.3,1038.9,962.4,1034,956.3,1034L956.3,1034z"/>
	</g>
	<g>
		<path class="st5" d="M1297.3,1176.6c-2.2,0-4.1-1.3-5-3.2l-14-30.5h-64.7l-14,30.5c-0.9,2-2.8,3.2-5,3.2h-14.2
			c-1.9,0-3.6-1-4.6-2.5c-1-1.6-1.1-3.6-0.3-5.3l58.8-126.1c0.9-1.9,2.8-3.2,5-3.2h13.4c2.1,0,4.1,1.2,5,3.2l58.8,126.1
			c0.8,1.7,0.7,3.7-0.3,5.3c-1,1.6-2.8,2.5-4.6,2.5H1297.3z M1268.3,1121.1l-22.3-49l-22.3,49H1268.3z"/>
		<path class="st5" d="M1252.8,1045l58.8,126.1h-14.3l-15.4-33.7h-71.7l-15.4,33.7h-14.2l58.8-126.1H1252.8 M1215.1,1126.6h61.8
			l-30.9-67.7L1215.1,1126.6 M1252.8,1034h-13.4c-4.3,0-8.2,2.5-10,6.3l-58.8,126.1c-1.6,3.4-1.3,7.4,0.7,10.6s5.5,5.1,9.3,5.1h14.2
			c4.3,0,8.2-2.5,10-6.4l12.5-27.3h57.6l12.5,27.3c1.8,3.9,5.7,6.4,10,6.4h14.3c3.8,0,7.3-1.9,9.3-5.1s2.3-7.2,0.7-10.6l-58.8-126.1
			C1260.9,1036.5,1257.1,1034,1252.8,1034L1252.8,1034z M1232.2,1115.6l13.8-30.2l13.8,30.2H1232.2L1232.2,1115.6z"/>
	</g>
</g>
<g>
	<g>
		<path class="st6" d="M498.1,1296.9c-2.3-1.2-4.1-3-5.5-5.2s-2-4.7-2-7.5s0.7-5.3,2-7.5s3.1-3.9,5.4-5.1s5-1.9,7.9-1.9
			c2.8,0,5.2,0.6,7.3,1.7c2.1,1.1,3.7,2.8,4.7,4.9l-5.1,3c-0.8-1.3-1.8-2.3-3-2.9c-1.2-0.7-2.6-1-4-1c-2.5,0-4.5,0.8-6.1,2.4
			s-2.4,3.8-2.4,6.4s0.8,4.8,2.4,6.4s3.7,2.4,6.2,2.4c1.4,0,2.8-0.3,4-1s2.2-1.6,3-2.9l5.1,3c-1.1,2.1-2.7,3.8-4.8,4.9
			c-2.1,1.1-4.5,1.7-7.3,1.7C503.1,1298.7,500.4,1298.1,498.1,1296.9z"/>
		<path class="st6" d="M545.4,1269.8v6.3c-0.6-0.1-1.1-0.2-1.5-0.2c-2.6,0-4.6,0.8-6,2.3s-2.2,3.7-2.2,6.5v13.7h-6.6v-28.3h6.3v4.1
			C537.3,1271.3,540.6,1269.8,545.4,1269.8z"/>
		<path class="st6" d="M556.7,1264.3c-0.8-0.8-1.2-1.7-1.2-2.8c0-1.1,0.4-2.1,1.2-2.8c0.8-0.8,1.8-1.1,3-1.1s2.2,0.4,3,1.1
			s1.2,1.6,1.2,2.7c0,1.2-0.4,2.1-1.2,2.9s-1.8,1.2-3,1.2C558.5,1265.4,557.5,1265.1,556.7,1264.3z M556.3,1270.1h6.6v28.3h-6.6
			V1270.1z"/>
		<path class="st6" d="M597.3,1272.8c2.2,2,3.3,5,3.3,9v16.6h-6.2v-3.4c-0.8,1.2-2,2.2-3.5,2.8c-1.5,0.7-3.3,1-5.4,1s-4-0.4-5.6-1.1
			s-2.8-1.7-3.7-3s-1.3-2.7-1.3-4.4c0-2.5,0.9-4.6,2.8-6.1c1.9-1.5,4.9-2.3,8.9-2.3h7.3v-0.4c0-2-0.6-3.5-1.8-4.6s-2.9-1.6-5.3-1.6
			c-1.6,0-3.2,0.2-4.7,0.7s-2.8,1.2-3.9,2.1l-2.6-4.8c1.5-1.1,3.3-2,5.3-2.6s4.3-0.9,6.6-0.9
			C591.9,1269.8,595.1,1270.8,597.3,1272.8z M591.3,1292.8c1.3-0.8,2.2-1.8,2.7-3.3v-3.3h-6.8c-3.8,0-5.7,1.3-5.7,3.8
			c0,1.2,0.5,2.2,1.4,2.9c1,0.7,2.3,1.1,4,1.1C588.5,1293.9,590,1293.5,591.3,1292.8z"/>
		<path class="st6" d="M631.4,1296.8c-0.8,0.6-1.7,1.1-2.8,1.4s-2.3,0.5-3.5,0.5c-3.1,0-5.5-0.8-7.2-2.4s-2.5-4-2.5-7.1v-13.6h-4.7
			v-5.3h4.7v-6.5h6.6v6.5h7.6v5.3H622v13.4c0,1.4,0.3,2.4,1,3.2c0.7,0.7,1.6,1.1,2.9,1.1c1.5,0,2.7-0.4,3.7-1.2L631.4,1296.8z"/>
		<path class="st6" d="M642.4,1264.3c-0.8-0.8-1.2-1.7-1.2-2.8c0-1.1,0.4-2.1,1.2-2.8c0.8-0.8,1.8-1.1,3-1.1s2.2,0.4,3,1.1
			s1.2,1.6,1.2,2.7c0,1.2-0.4,2.1-1.2,2.9s-1.8,1.2-3,1.2C644.3,1265.4,643.3,1265.1,642.4,1264.3z M642.1,1270.1h6.6v28.3h-6.6
			V1270.1z"/>
		<path class="st6" d="M689.2,1270.1l-12.1,28.3h-6.8l-12.1-28.3h6.9l8.8,21l9.1-21H689.2z"/>
		<path class="st6" d="M702.8,1296.9c-2.3-1.2-4.1-3-5.4-5.2c-1.3-2.2-1.9-4.7-1.9-7.5s0.6-5.3,1.9-7.5c1.3-2.2,3.1-3.9,5.4-5.1
			c2.3-1.2,4.9-1.9,7.7-1.9c2.9,0,5.5,0.6,7.8,1.9c2.3,1.2,4.1,2.9,5.4,5.1c1.3,2.2,1.9,4.7,1.9,7.5s-0.6,5.3-1.9,7.5
			c-1.3,2.2-3.1,3.9-5.4,5.2c-2.3,1.2-4.9,1.9-7.8,1.9C707.7,1298.7,705.1,1298.1,702.8,1296.9z M716.6,1290.6
			c1.6-1.6,2.4-3.8,2.4-6.4s-0.8-4.8-2.4-6.4c-1.6-1.6-3.6-2.4-6-2.4s-4.4,0.8-6,2.4s-2.4,3.8-2.4,6.4s0.8,4.8,2.4,6.4
			c1.6,1.6,3.6,2.4,6,2.4C713,1293.1,715,1292.3,716.6,1290.6z"/>
		<path class="st6" d="M739.3,1297.8c-2.2-0.6-3.9-1.4-5.2-2.3l2.5-5c1.3,0.8,2.8,1.5,4.6,2s3.5,0.8,5.3,0.8c4,0,5.9-1,5.9-3.1
			c0-1-0.5-1.7-1.5-2.1s-2.6-0.8-4.8-1.1c-2.3-0.4-4.2-0.8-5.7-1.2c-1.5-0.5-2.7-1.3-3.8-2.4s-1.6-2.7-1.6-4.8
			c0-2.7,1.1-4.8,3.4-6.4c2.2-1.6,5.3-2.4,9.1-2.4c1.9,0,3.9,0.2,5.8,0.7c1.9,0.4,3.5,1,4.8,1.8l-2.5,5c-2.4-1.4-5.1-2.1-8.1-2.1
			c-1.9,0-3.4,0.3-4.4,0.9s-1.5,1.3-1.5,2.3c0,1.1,0.5,1.8,1.6,2.3c1.1,0.4,2.7,0.9,5,1.2c2.3,0.4,4.1,0.8,5.6,1.2s2.7,1.2,3.7,2.3
			c1,1.1,1.6,2.6,1.6,4.7c0,2.6-1.1,4.8-3.4,6.4c-2.3,1.6-5.4,2.4-9.4,2.4C743.7,1298.7,741.5,1298.4,739.3,1297.8z"/>
		<path class="st6" d="M817.4,1270.1v38.5h-6.6v-13.7c-2.2,2.5-5.2,3.8-9.1,3.8c-2.8,0-5.2-0.6-7.4-1.8c-2.2-1.2-3.9-2.9-5.1-5.1
			c-1.2-2.2-1.8-4.7-1.8-7.6s0.6-5.4,1.9-7.6c1.2-2.2,2.9-3.9,5.1-5.1c2.2-1.2,4.6-1.8,7.4-1.8c1.9,0,3.7,0.3,5.3,1s3,1.7,4.1,3
			v-3.7L817.4,1270.1L817.4,1270.1z M808.5,1290.6c1.6-1.6,2.4-3.8,2.4-6.4s-0.8-4.8-2.4-6.4c-1.6-1.6-3.6-2.4-6-2.4s-4.4,0.8-6,2.4
			s-2.4,3.8-2.4,6.4s0.8,4.8,2.4,6.4c1.6,1.6,3.6,2.4,6,2.4C804.9,1293.1,806.9,1292.3,808.5,1290.6z"/>
		<path class="st6" d="M858.7,1270.1v28.3h-6.3v-3.6c-1.1,1.3-2.4,2.3-4,2.9c-1.6,0.7-3.3,1-5.1,1c-3.8,0-6.8-1.1-8.9-3.2
			c-2.2-2.1-3.3-5.2-3.3-9.3v-16.1h6.6v15.2c0,2.5,0.6,4.4,1.7,5.7c1.1,1.3,2.8,1.9,4.9,1.9c2.4,0,4.2-0.7,5.6-2.2
			c1.4-1.5,2.1-3.6,2.1-6.3v-14.3H858.7z"/>
		<path class="st6" d="M899.2,1286.3H877c0.4,2.1,1.4,3.7,3,5s3.7,1.8,6.1,1.8c3.1,0,5.7-1,7.7-3.1l3.5,4.1
			c-1.3,1.5-2.9,2.7-4.8,3.4c-1.9,0.8-4.1,1.2-6.6,1.2c-3.1,0-5.8-0.6-8.2-1.9c-2.4-1.2-4.2-3-5.5-5.2s-1.9-4.7-1.9-7.5
			s0.6-5.2,1.9-7.4s3-3.9,5.2-5.2c2.2-1.2,4.7-1.9,7.5-1.9s5.2,0.6,7.4,1.8s3.9,2.9,5.1,5.1s1.8,4.8,1.8,7.7
			C899.3,1284.8,899.3,1285.5,899.2,1286.3z M879.6,1276.9c-1.5,1.3-2.4,2.9-2.7,5h16c-0.3-2-1.1-3.7-2.6-5
			c-1.4-1.3-3.2-1.9-5.4-1.9C882.9,1275.1,881.1,1275.7,879.6,1276.9z"/>
		<path class="st6" d="M957.3,1270.1l-12.1,28.3h-6.8l-12.1-28.3h6.9l8.8,21l9.1-21H957.3z"/>
		<path class="st6" d="M992.4,1286.3h-22.2c0.4,2.1,1.4,3.7,3,5s3.7,1.8,6.1,1.8c3.1,0,5.7-1,7.7-3.1l3.5,4.1
			c-1.3,1.5-2.9,2.7-4.8,3.4c-1.9,0.8-4.1,1.2-6.6,1.2c-3.1,0-5.8-0.6-8.2-1.9c-2.4-1.2-4.2-3-5.5-5.2s-1.9-4.7-1.9-7.5
			s0.6-5.2,1.9-7.4s3-3.9,5.2-5.2c2.2-1.2,4.7-1.9,7.5-1.9s5.2,0.6,7.4,1.8s3.9,2.9,5.1,5.1s1.8,4.8,1.8,7.7
			C992.5,1284.8,992.5,1285.5,992.4,1286.3z M972.9,1276.9c-1.5,1.3-2.4,2.9-2.7,5h16c-0.3-2-1.1-3.7-2.6-5
			c-1.4-1.3-3.2-1.9-5.4-1.9C976.1,1275.1,974.3,1275.7,972.9,1276.9z"/>
		<path class="st6" d="M1028.8,1272.9c2.2,2.1,3.2,5.2,3.2,9.3v16.2h-6.6V1283c0-2.5-0.6-4.3-1.7-5.6c-1.2-1.3-2.8-1.9-5-1.9
			c-2.4,0-4.4,0.7-5.8,2.2c-1.4,1.5-2.1,3.6-2.1,6.3v14.3h-6.6V1270h6.3v3.7c1.1-1.3,2.5-2.3,4.1-3c1.7-0.7,3.5-1,5.6-1
			C1023.8,1269.8,1026.6,1270.8,1028.8,1272.9z"/>
		<path class="st6" d="M1073.7,1259.1v39.3h-6.4v-3.7c-1.1,1.3-2.4,2.3-4.1,3c-1.6,0.7-3.4,1-5.3,1c-2.7,0-5.2-0.6-7.3-1.8
			c-2.2-1.2-3.9-2.9-5.1-5.1s-1.9-4.7-1.9-7.6s0.6-5.4,1.9-7.6c1.2-2.2,2.9-3.9,5.1-5.1s4.6-1.8,7.3-1.8c1.9,0,3.6,0.3,5.1,1
			c1.6,0.6,2.9,1.6,4,2.9v-14.5L1073.7,1259.1L1073.7,1259.1z M1063.1,1292c1.3-0.7,2.3-1.8,3-3.1c0.7-1.3,1.1-2.9,1.1-4.7
			s-0.4-3.3-1.1-4.7c-0.7-1.3-1.7-2.4-3-3.1s-2.7-1.1-4.3-1.1c-1.6,0-3,0.4-4.3,1.1s-2.3,1.8-3,3.1c-0.7,1.3-1.1,2.9-1.1,4.7
			s0.4,3.3,1.1,4.7c0.7,1.3,1.7,2.4,3,3.1s2.7,1.1,4.3,1.1S1061.8,1292.7,1063.1,1292z"/>
		<path class="st6" d="M1114.1,1286.3H1092c0.4,2.1,1.4,3.7,3,5s3.7,1.8,6.1,1.8c3.1,0,5.7-1,7.7-3.1l3.5,4.1
			c-1.3,1.5-2.9,2.7-4.8,3.4c-1.9,0.8-4.1,1.2-6.6,1.2c-3.1,0-5.8-0.6-8.2-1.9c-2.4-1.2-4.2-3-5.5-5.2s-1.9-4.7-1.9-7.5
			s0.6-5.2,1.9-7.4s3-3.9,5.2-5.2c2.2-1.2,4.7-1.9,7.5-1.9s5.2,0.6,7.4,1.8s3.9,2.9,5.1,5.1s1.8,4.8,1.8,7.7
			C1114.3,1284.8,1114.2,1285.5,1114.1,1286.3z M1094.6,1276.9c-1.5,1.3-2.4,2.9-2.7,5h16c-0.3-2-1.1-3.7-2.6-5
			c-1.4-1.3-3.2-1.9-5.4-1.9C1097.8,1275.1,1096,1275.7,1094.6,1276.9z"/>
		<path class="st6" d="M1170.1,1272.9c2.1,2.1,3.1,5.2,3.1,9.3v16.2h-6.6V1283c0-2.5-0.5-4.3-1.6-5.6c-1.1-1.3-2.7-1.9-4.7-1.9
			c-2.2,0-4,0.7-5.3,2.2s-2,3.6-2,6.3v14.3h-6.6V1283c0-2.5-0.5-4.3-1.6-5.6c-1.1-1.3-2.7-1.9-4.7-1.9c-2.3,0-4.1,0.7-5.4,2.2
			c-1.3,1.4-2,3.5-2,6.3v14.3h-6.6V1270h6.3v3.6c1.1-1.3,2.4-2.2,4-2.9c1.6-0.7,3.4-1,5.3-1c2.1,0,4,0.4,5.6,1.2
			c1.6,0.8,2.9,2,3.9,3.5c1.2-1.5,2.7-2.6,4.5-3.5c1.8-0.8,3.9-1.2,6.1-1.2C1165.2,1269.8,1168,1270.8,1170.1,1272.9z"/>
		<path class="st6" d="M1187,1297.5c-0.8-0.8-1.2-1.8-1.2-2.9c0-1.2,0.4-2.1,1.2-2.9c0.8-0.8,1.8-1.2,3.1-1.2c1.2,0,2.2,0.4,3,1.2
			c0.8,0.8,1.2,1.7,1.2,2.9c0,1.2-0.4,2.1-1.2,2.9c-0.8,0.8-1.8,1.2-3,1.2C1188.8,1298.7,1187.8,1298.3,1187,1297.5z M1186.1,1261.3
			h7.8l-1.3,24.8h-5.2L1186.1,1261.3z"/>
	</g>
</g>
<g>
	<g>
		<path class="st5" d="M801.7,234.6c3.6,0,7.3,0.1,10.9,0.3c114.4,5.3,208.7,95.5,218.8,209.6c0.8,8.5,1,16.9,0.9,25.3
			c-1.5,80.9-69.3,144.8-150.2,144.8H721.3C639.4,614.6,571.6,549,571,467c0-0.6,0-1.1,0-1.7C571,338.1,674.5,234.6,801.7,234.6
			 M801.7,212.6C662.4,212.6,549,326,549,465.3c0,0.6,0,1.2,0,1.9c0.3,45.4,18.5,88.1,51.3,120.1c15.8,15.5,34.2,27.6,54.6,36.1
			c21.1,8.8,43.4,13.2,66.4,13.2h160.8c22.7,0,44.8-4.3,65.7-12.9c20.3-8.3,38.6-20.2,54.4-35.3c32.8-31.4,51.3-73.4,52.1-118.2
			c0.2-9.1-0.1-18.4-1-27.6c-5.3-60.5-32.7-117.1-77-159.5S874.2,215.8,813.6,213C809.7,212.7,805.6,212.6,801.7,212.6L801.7,212.6z
			"/>
	</g>
	<g>
		
			<ellipse transform="matrix(0.4328 -0.9015 0.9015 0.4328 53.3288 831.1309)" class="st5" cx="687.1" cy="373.2" rx="67.4" ry="50.6"/>
	</g>
	<path class="st5" d="M470,846.6c16.3,17.2,36.3,30.3,56.7,43.2c6.3,4,12.7,8,19.1,11.8c77.1,45.7,165.4,70.2,255.9,70.2
		c118.8,0,234.2-42.4,325-119.5l2.3-2c12.5-10.8,23.3-23.4,32.1-37.6c7.6-12.3,13.6-25.6,17.7-39.5c8.6-28.8-3.1-60.1-28.5-76.3
		c-0.4-0.2-0.7-0.5-1.1-0.7c-10.9-6.8-23.4-10.3-36.3-10.3c-9.7,0-19,2-27.5,5.7c-6.7-12.1-16.7-21.9-28.7-28.3
		c15.9-20.8,29.3-43.7,39.7-68.1c46.2-0.8,83.4-38.5,83.4-84.8v-86.9c0-46.9-38-84.9-84.9-84.9v1.2
		C1045.3,227,932.7,148.4,801.7,148.4c-127.2,0-237,74-288.9,181.3v-206c0-12.6-10.2-22.7-22.7-22.7c-12.6,0-22.7,10.2-22.7,22.7
		V349c-26.2,14.5-44,42.3-44,74.4v86.9c0,46.4,37.2,84,83.4,84.8c10.2,23.9,23.3,46.3,38.8,66.9c-10.4,5.6-19.4,13.7-26,23.7
		c-9.7-5.3-20.8-8.3-32.5-8.3c-5.5,0-10.9,0.7-16.2,2c-5.4,2-11.4,3.4-17,5.7c-5.3,2.4-9.7,5.5-13.1,9.3c-7.4,8-10.8,17.9-12.1,28.5
		c-0.7,5.3-0.8,10.7-0.6,16.2c0.9,30.4,9.3,60.8,25.6,86.6C458.4,833.3,463.9,840.2,470,846.6z M1048.1,734.2
		c-0.6,2.2-1.6,4.3-2.7,6.2c-1.2,2-2.6,3.7-4.2,5.2c-0.4,0.4-0.7,0.8-1.2,1.2c-0.6,0.5-1.1,1-1.7,1.5c-1.4,1.2-2.8,2.3-4.2,3.4
		c-2.7,2.2-5.4,4.5-8.2,6.7c-1.7,1.3-3.4,2.5-5.1,3.8c-2.6,1.9-5.2,3.9-7.8,5.8c-1.3,0.9-2.6,1.7-3.8,2.6c-3.2,2.2-6.4,4.4-9.6,6.5
		c-0.7,0.4-1.4,0.8-2.1,1.3c-3.9,2.5-7.9,4.9-11.9,7.3l0,0c-46.3,26.9-98,43.5-151.5,48.3c-0.6,0.1-1.2,0.1-1.8,0.1
		c-4.7,0.4-9.4,0.7-14.2,0.9c-5.4,0.2-10.9,0.4-16.4,0.4c-5.6,0-11.1-0.1-16.6-0.4c-4.3-0.2-8.6-0.5-12.9-0.9
		c-1.1-0.1-2.3-0.1-3.4-0.2c-48.7-4.4-95.9-18.6-138.8-41.4c-0.2-0.1-0.3-0.2-0.5-0.2c-4.1-2.2-8.1-4.5-12.1-6.8
		c-0.8-0.5-1.6-0.9-2.4-1.4c-3.3-2-6.6-4.1-9.8-6.1c-1.4-0.9-2.8-1.7-4.2-2.6c-2.7-1.7-5.2-3.6-7.9-5.4c-1.9-1.3-3.8-2.6-5.7-3.9
		c-2.2-1.6-4.3-3.2-6.4-4.9c-2.2-1.6-4.4-3.3-6.5-4.9c-2.7-2.1-5.2-4.3-7.8-6.5c-1.5-1.3-3.1-2.5-4.6-3.8c-0.1-0.1-0.2-0.2-0.3-0.3
		c-1.3-1.1-2.5-2.4-3.6-3.7c-0.1-0.1-0.1-0.1-0.2-0.2c-1-1.3-1.9-2.7-2.6-4.1c-0.1-0.1-0.1-0.3-0.2-0.4c-0.4-0.9-0.8-1.8-1.2-2.8
		c0-0.1-0.1-0.2-0.1-0.3c-0.3-1-0.6-2-0.8-3l0,0c-2.9-14.8,7.5-30.9,24.9-32c57.8,56.2,136.6,90.8,223.5,90.8
		c86.3,0,164.7-34.2,222.3-89.7c0.7,0.1,1.3,0.1,2,0.2c16.9,1.9,26,18.3,22.5,32.8C1048.4,733.5,1048.2,733.8,1048.1,734.2z
		 M801.7,193.9c151.8,0,275.2,123.5,275.2,275.2c0,151.8-123.5,275.2-275.2,275.2c-151.8,0-275.2-123.5-275.2-275.2
		S649.9,193.9,801.7,193.9z M475.6,725.9c0.2-0.1,0.3-0.2,0.5-0.2c6.7-3.5,14.1-3.4,20.2-0.7s11,8,12.5,15.2
		c1.3,6.1,3.3,12.1,6.1,17.7c4.1,8.2,9.9,15.7,17.2,22.1l0.4,0.3c74.9,64.9,170.5,100.6,269.3,100.6c97.3,0,191.8-34.8,266-97.8
		c12.6-10.7,18-23.2,24.7-37.9c5.7-12.6,21-17.5,33-10.1c0.1,0.1,0.3,0.2,0.4,0.3c13.8,13.7,10.6,25.7,2.7,42.5
		c-16.8,35.8-54.3,60.1-86.9,80.2c-34.9,21.6-72.7,38.4-112,49.9c-41.5,12.1-84.6,18.3-127.8,18.3c-89.1,0-176-26.2-250-74.7
		c-5.7-3.7-11.3-7.6-16.9-11.4c-19.4-13.4-38.2-24.7-52.3-44.3c-6.7-9.3-12-19.7-15-30.8C464,752.1,460.4,733.5,475.6,725.9z"/>
</g>
<linearGradient id="SVGID_6_" gradientUnits="userSpaceOnUse" x1="2871.9114" y1="989.756" x2="2956.3181" y2="728.6227" gradientTransform="matrix(1 0 0 -1 0 1184)">
	<stop  offset="0" style="stop-color:#F2B224"/>
	<stop  offset="0.457" style="stop-color:#E4704B"/>
	<stop  offset="1" style="stop-color:#D13F8A"/>
</linearGradient>
<path class="st7" d="M3074,413.6c-51-149.5-119.6-327.1-168.8-327.1c-22,0-41.6,17.9-58.7,43.5c-21.2,31.7-38.6,75.2-52.1,111.3
	c-7.3,19.4-14.8,39.4-22.1,59c92.1-83.5,130.6-48.1,144-25.6c1.2,1.3,2.4,2.9,3.3,5.2c0.5,1.1,0.9,2.3,1.4,3.7
	c1.5,4.9,3.2,10.8,4.9,17.4c2,7.5,4.1,16.1,6.4,25.3c0,0.1,0.1,0.2,0.1,0.4v0.1c18.5,74.4,47.3,191,95.8,184.2
	c22.8-3.2,42.1-28.1,59.4-63.7C3082.8,437.4,3078.3,426.3,3074,413.6z"/>
<linearGradient id="SVGID_7_" gradientUnits="userSpaceOnUse" x1="1980.1068" y1="475.2431" x2="2100.572" y2="635.8632" gradientTransform="matrix(1 0 0 -1 0 1184)">
	<stop  offset="0" style="stop-color:#D13F8A"/>
	<stop  offset="0.4946" style="stop-color:#A7679F"/>
	<stop  offset="0.5546" style="stop-color:#8D6FA6"/>
	<stop  offset="0.7084" style="stop-color:#5182B6"/>
	<stop  offset="0.8393" style="stop-color:#258FC2"/>
	<stop  offset="0.9406" style="stop-color:#0A98C9"/>
	<stop  offset="1" style="stop-color:#009BCC"/>
</linearGradient>
<path class="st8" d="M2155.2,546.1c-14.1,14.4-28.8,43.7-44.9,88.4c-30.6,84.5-85.9,134.2-124.8,54.9c38.6-79.5,64.1-229,106-237
	C2127.3,445.7,2142.5,488.7,2155.2,546.1z"/>
<linearGradient id="SVGID_8_" gradientUnits="userSpaceOnUse" x1="2503.3" y1="1196.1212" x2="2594.5979" y2="1196.1212" gradientTransform="matrix(1 0 0 -1 0 1184)">
	<stop  offset="0" style="stop-color:#009BCC"/>
	<stop  offset="1" style="stop-color:#C5CB4E"/>
</linearGradient>
<path class="st9" d="M2585.6,94.7c-26.8,17.4-52.2-42.8-69.6-127.2c-4.4-21.3-8.4-42.3-12.7-61.6c9.8-26.3,25.5-36.9,40.8-18.9
	C2573.6-78.3,2612.4,77.2,2585.6,94.7z"/>
</svg>
