<?xml version="1.0" encoding="utf-8"?>
<!-- Generator: Adobe Illustrator 24.0.2, SVG Export Plug-In . SVG Version: 6.00 Build 0)  -->
<svg version="1.1" id="Camada_1" xmlns="http://www.w3.org/2000/svg" xmlns:xlink="http://www.w3.org/1999/xlink" x="0px" y="0px"
	 viewBox="0 0 1600 1181.1" style="enable-background:new 0 0 1600 1181.1;" xml:space="preserve">
<style type="text/css">
	.st0{fill:url(#SVGID_1_);}
	.st1{fill:#16A3F2;}
	.st2{fill:#521BA4;}
</style>
<g>
	<linearGradient id="SVGID_1_" gradientUnits="userSpaceOnUse" x1="329.7001" y1="511.5" x2="1270.3" y2="511.5">
		<stop  offset="0" style="stop-color:#16A3F2"/>
		<stop  offset="1" style="stop-color:#178CCE"/>
	</linearGradient>
	<path class="st0" d="M1192.9,414.9v-96.8c0-48.4-11.9-84.8-35.5-108.4c-23.3-23.3-59.3-35.3-106.9-35.5c-0.5,0.1-0.9,0.1-1.4,0.1
		c-122.9,0-202.2,36.4-242.4,111.4c-34.5,64.2-34.5,146.5-34.5,226c0,80.1-0.1,149.2-27.7,199.7c-30.7,56.1-92.2,82.2-193.5,82.2
		c-0.4,0-0.9,0-1.3-0.1c-57-0.5-87.1-31-87.1-88.4v-96.8c0-51.6-21.6-78.9-68.1-85.9c-5.4-0.8-9.4-5.4-9.4-10.9s4-10.1,9.4-10.9
		c46.4-7,68.1-34.2,68.1-85.9v-96.8c0-57.6,30.3-88.1,87.6-88.4c0.3,0,0.5,0,0.8,0h162.1c11.3-20.2,24.5-38.7,39.5-55.4H550.9
		c-0.2,0-0.4,0-0.6,0c-0.3,0-0.6,0-0.8,0h-10c-0.8,0.2-1.6,0.4-2.5,0.4c-87.4,4.4-129.9,51.4-129.9,143.4v96.8
		c0,29.9-13.8,65.1-77.4,68.8v56c63.6,3.6,77.4,38.9,77.4,68.8v96.8c0,48.3,11.9,84.8,35.5,108.3c23.3,23.3,59.3,35.3,107,35.5
		c0.4-0.1,0.9-0.1,1.3-0.1c122.7,0,201.9-36.4,242-111.3c34.4-64.2,34.4-146.4,34.5-225.9c0-80.1,0.1-149.3,27.8-199.9
		c30.7-56.1,92.3-82.3,193.9-82.3c0.4,0,0.9,0,1.3,0.1c57,0.4,87.2,31,87.2,88.4v96.8c0,51.6,21.6,78.9,68,85.9
		c5.4,0.8,9.4,5.4,9.4,10.9c0,5.4-4,10.1-9.4,10.9c-46.4,7-68,34.3-68,85.9v96.8c0,57.8-30.6,88.4-88.4,88.4H886.7
		c-11.2,20.2-24.5,38.7-39.5,55.3h201.9c0.5,0,0.9,0,1.3,0.1c47.7-0.2,83.7-12.2,107-35.5c23.5-23.5,35.5-60,35.5-108.3v-96.8
		c0-29.9,13.8-65.2,77.4-68.8v-56C1206.7,480.1,1192.9,444.8,1192.9,414.9z"/>
</g>
<g>
	<path class="st1" d="M4.7,1034.5h41.2v113h69.5v32.7H4.7V1034.5z"/>
	<path class="st1" d="M283.2,1078.3c9.8,8.5,14.8,21.6,14.8,39.2v62.6h-36.8v-14.6c-5.7,11-16.8,16.4-33.3,16.4
		c-8.7,0-16.3-1.5-22.7-4.6c-6.4-3-11.2-7.2-14.5-12.4c-3.3-5.2-4.9-11.1-4.9-17.8c0-10.7,4.1-19,12.3-24.9s20.8-8.8,37.9-8.8h22.5
		c-0.7-11.9-8.7-17.9-23.9-17.9c-5.4,0-10.9,0.9-16.4,2.6s-10.3,4.1-14.1,7.2l-13.3-26.8c6.2-4.2,13.8-7.4,22.8-9.7
		c8.9-2.3,17.9-3.4,26.9-3.4C259.1,1065.5,273.4,1069.7,283.2,1078.3z M251,1153.7c3.5-2.2,6-5.5,7.5-9.8v-9.8h-17.1
		c-11.5,0-17.3,3.8-17.3,11.4c0,3.5,1.3,6.2,4,8.3c2.6,2.1,6.2,3.1,10.8,3.1S247.5,1155.9,251,1153.7z"/>
	<path class="st1" d="M491.2,1078c8.5,8.3,12.8,20.9,12.8,37.7v64.5h-39.5v-58c0-15.4-6.2-23.1-18.5-23.1c-6.8,0-12.2,2.2-16.3,6.7
		c-4.1,4.4-6.1,11.1-6.1,20v54.5h-39.5v-112.8h37.7v12.3c4.4-4.6,9.7-8.1,15.8-10.5c6.1-2.4,12.8-3.6,20-3.6
		C471.4,1065.5,482.6,1069.6,491.2,1078z"/>
	<path class="st1" d="M711.2,1025.7v154.4h-37.7v-11.2c-7.4,8.7-18.4,13.1-33.1,13.1c-10.3,0-19.6-2.4-28.1-7.2
		c-8.5-4.8-15.2-11.6-20.1-20.5c-4.9-8.9-7.4-19.1-7.4-30.8s2.5-21.9,7.4-30.7c4.9-8.8,11.6-15.6,20.1-20.3
		c8.5-4.7,17.8-7.1,28.1-7.1c13.5,0,23.9,3.9,31.2,11.6v-51.4L711.2,1025.7L711.2,1025.7z M665.6,1143.4c4.4-4.8,6.7-11.4,6.7-19.9
		c0-8.3-2.2-14.8-6.6-19.6c-4.4-4.7-10-7.1-17-7.1c-6.9,0-12.6,2.4-17.1,7.1c-4.4,4.7-6.7,11.2-6.7,19.6c0,8.5,2.2,15.1,6.7,19.9
		c4.4,4.8,10.1,7.2,17.1,7.2C655.5,1150.6,661.2,1148.2,665.6,1143.4z"/>
	<path class="st1" d="M810.6,1178.8c-9.2-2.1-16.5-5-22.1-8.4l11.9-27c5.1,3.2,11.2,5.7,18.3,7.6s14.1,2.8,21,2.8
		c6.4,0,10.9-0.7,13.6-2c2.7-1.3,4.1-3.2,4.1-5.7s-1.6-4.3-4.9-5.3c-3.3-1-8.4-2-15.5-3c-9-1.1-16.7-2.6-23-4.4s-11.8-5.1-16.3-10
		c-4.6-4.9-6.9-11.7-6.9-20.4c0-7.2,2.1-13.6,6.4-19.2c4.3-5.6,10.6-10.1,18.8-13.3c8.3-3.3,18.1-4.9,29.6-4.9
		c8.2,0,16.3,0.8,24.3,2.5s14.8,4,20.2,7.1l-11.9,26.8c-10-5.5-20.8-8.3-32.5-8.3c-6.2,0-10.8,0.7-13.7,2.2s-4.4,3.4-4.4,5.7
		c0,2.6,1.6,4.5,4.8,5.5s8.5,2.1,15.8,3.2c9.3,1.4,17,3,23.1,4.8s11.4,5.1,15.9,9.9s6.8,11.5,6.8,20.1c0,7.1-2.2,13.4-6.4,19
		c-4.3,5.6-10.6,10-19,13.2s-18.5,4.8-30.3,4.8C829,1182,819.8,1180.9,810.6,1178.8z"/>
	<path class="st1" d="M1050,1175.5c-3.3,2.1-7.4,3.7-12.2,4.8c-4.8,1.1-9.9,1.7-15.3,1.7c-14.7,0-26-3.6-33.9-10.8
		c-7.9-7.2-11.9-18-11.9-32.2v-37.9h-16.4v-29.5h16.4v-29.3h39.5v29.3h25.8v29.5h-25.8v37.4c0,4,1.1,7.2,3.2,9.5
		c2.1,2.3,5,3.4,8.6,3.4c4.6,0,8.6-1.2,12.1-3.5L1050,1175.5z"/>
	<path class="st1" d="M1146.8,1174.5c-9.7-5-17.3-11.9-22.8-20.8s-8.2-18.9-8.2-30.2c0-11.1,2.7-21.1,8.2-30s13-15.8,22.7-20.7
		c9.6-4.9,20.6-7.4,32.8-7.4c12.2,0,23.2,2.5,32.9,7.4c9.7,4.9,17.3,11.8,22.7,20.6c5.4,8.8,8.1,18.8,8.1,30.1s-2.7,21.3-8.1,30.2
		c-5.4,8.9-13,15.8-22.7,20.8s-20.7,7.5-32.9,7.5C1167.4,1182,1156.5,1179.5,1146.8,1174.5z M1196.5,1143.4
		c4.4-4.8,6.7-11.4,6.7-19.9c0-8.3-2.2-14.8-6.7-19.6c-4.4-4.7-10.1-7.1-17.1-7.1c-6.9,0-12.6,2.4-17.1,7.1
		c-4.4,4.7-6.7,11.2-6.7,19.6c0,8.5,2.2,15.1,6.7,19.9c4.4,4.8,10.1,7.2,17.1,7.2S1192.1,1148.2,1196.5,1143.4z"/>
	<path class="st1" d="M1375.7,1069.3c6.4-2.6,13.8-3.8,22.2-3.8v35.6c-3.6-0.4-6.6-0.6-8.9-0.6c-8.5,0-15.1,2.3-19.9,6.9
		s-7.2,11.6-7.2,21v51.8h-39.5v-112.8h37.7v13.5C1364,1075.7,1369.3,1071.9,1375.7,1069.3z"/>
	<path class="st1" d="M1588.7,1133.7h-82c1.7,5.8,4.9,10.3,9.7,13.4c4.8,3.1,10.8,4.7,18,4.7c5.4,0,10.1-0.8,14-2.3
		c4-1.5,7.9-4,12-7.5l20.8,21.6c-11,12.2-27,18.3-48.1,18.3c-13.2,0-24.8-2.5-34.7-7.5c-10-5-17.7-11.9-23.2-20.8
		s-8.2-18.9-8.2-30.2c0-11.1,2.7-21,8-29.9c5.3-8.8,12.7-15.7,22.2-20.7c9.4-5,20-7.5,31.8-7.5c11.2,0,21.4,2.3,30.6,7
		c9.2,4.6,16.4,11.4,21.7,20.2c5.3,8.8,8,19.2,8,31.3C1589.3,1124.2,1589.1,1127.5,1588.7,1133.7z M1513.9,1098.8
		c-4.1,3.5-6.7,8.2-7.8,14.1h46.2c-1.1-6-3.7-10.7-7.8-14.1c-4.1-3.5-9.2-5.2-15.3-5.2C1523,1093.6,1518,1095.3,1513.9,1098.8z"/>
</g>
<path class="st2" d="M3774.9,977.6c15.5,16.1,30.7,31.7,45.8,47.4c-61.3,0-122.9,0-185.2,0c10.7-89.2,21.4-178.4,32.2-268.9
	c-2.7,2-4.2,3.1-5.6,4.2c-101.6,79.7-203.2,159.4-304.8,239.2c-10.1,7.9-20.1,15.9-30.3,23.7c-1.6,1.3-4,2.2-6,2.3
	c-30.5,0.1-61.1,0.1-91.6,0.1c-0.7,0-1.3-0.2-2.7-0.4c1.7-9.8,3.4-19.4,5.1-29c8.2-44.9,16.5-89.8,24.8-134.7
	c7.8-42.2,15.6-84.4,23.1-126.6c0.6-3.3,0.2-7.3-1.1-10.4c-47-104.3-94.1-208.6-141.2-312.8c-0.6-1.4-1.1-2.8-0.8-4.6
	c59.7,82.5,119.3,165,179.4,248c122.8-97.8,245.2-195.3,368.2-293.2c29.3,57.1,58.5,113.9,87.6,170.8c0.4-0.1,0.7-0.3,1.1-0.4
	c-3.6-11.3-7.2-22.6-10.9-33.9c-16.7-51.8-34-103.5-50-155.6c-5.3-17.1-7.4-35.2-10.9-52.8c-3-14.9-6-29.8-8.7-44.8
	c-0.7-3.6-2.3-5.1-5.7-6.3c-76.4-26.9-152.7-54-229-81.1c-2.1-0.7-4.6-2.8-5.2-4.8c-8.7-25.7-17.2-51.5-25.7-77.3
	c-0.2-0.6-0.3-1.3-0.5-2.6C3575.6-4.7,3725-82.6,3875.1-160.8c-134.5-138.4-268.5-276.4-402.6-414.3c0.2-0.3,0.4-0.6,0.7-1
	c226.1,131.7,452.3,263.5,679.1,395.6c-26,41.5-51.8,82.6-78.3,124.9c62.6,1.8,124.1,3.6,185.6,5.3c0.1,0.4,0.3,0.7,0.4,1.1
	c-47.5,38.1-95,76.2-142.8,114.7c6.8,10.5,13.4,20.6,20,30.7c70,106.6,140.1,213.1,209.8,320c5.9,9.1,9.1,20.1,12.7,30.5
	c41.3,120,82.5,240.1,123.7,360.2c24.6,71.7,49.2,143.3,73.8,215c0.3,1,0.5,2,0.9,3.8c-2.1,0-3.9,0-5.7,0c-60.4,0-120.7,0-181.1,0.1
	c-4.3,0-6.8-1.4-9.5-4.6c-66.9-81.4-134-162.7-201-244.1c-6-7.2-12-14.4-17.8-21.7c-2.5-3.2-4.3-3.7-8-1.4
	c-61.1,38.2-122.4,76.2-183.6,114.2c-57.1,35.5-114.2,71-171.3,106.5C3778.1,975.4,3776.6,976.5,3774.9,977.6z"/>
</svg>
