<?xml version="1.0" encoding="utf-8"?>
<!-- Generator: Adobe Illustrator 24.0.2, SVG Export Plug-In . SVG Version: 6.00 Build 0)  -->
<svg version="1.1" id="Ñëîé_1" xmlns="http://www.w3.org/2000/svg" xmlns:xlink="http://www.w3.org/1999/xlink" x="0px" y="0px"
	 viewBox="0 0 147.2 355.3" style="enable-background:new 0 0 147.2 355.3;" xml:space="preserve">
<style type="text/css">
	.st0{font-family:'HelveticaNeueCyr-Heavy';}
	.st1{font-size:31.5903px;}
	.st2{letter-spacing:1;}
</style>
<g>
	<polygon points="51.1,84.4 96,84.4 96,95.6 103.5,95.6 103.5,69.4 99.8,65.7 96,69.4 96,76.9 51.1,76.9 51.1,69.4 47.4,65.7 
		43.7,69.4 43.7,95.6 51.1,95.6 	"/>
	<rect x="62.4" y="54.5" width="7.5" height="18.7"/>
	<rect x="77.3" y="54.5" width="7.5" height="18.7"/>
	<polygon points="77.3,20.8 88.6,20.8 88.6,24.5 107.3,24.5 103.5,20.8 107.3,17 92.3,17 92.3,13.3 77.3,13.3 77.3,9.6 73.6,5.8 
		69.8,9.6 69.8,35.8 77.3,35.8 	"/>
	<polygon points="88.6,39.5 81.1,39.5 81.1,43.3 77.3,43.3 77.3,39.5 69.8,39.5 69.8,43.3 66.1,43.3 66.1,39.5 58.6,39.5 58.6,50.7 
		88.6,50.7 	"/>
	<polygon points="107.3,144.3 107.3,133.1 99.8,133.1 99.8,136.8 77.3,136.8 77.3,144.3 88.6,144.3 88.6,148.1 96.1,148.1 
		96.1,144.3 	"/>
	<polygon points="58.6,148.1 58.6,144.3 69.8,144.3 69.8,136.8 47.4,136.8 47.4,133.1 39.9,133.1 39.9,144.3 51.1,144.3 51.1,148.1 
			"/>
	<polygon points="122.2,88.2 118.5,84.4 114.7,88.2 114.7,99.4 88.6,99.4 88.6,106.9 114.7,106.9 114.7,114.4 84.8,114.4 84.8,95.7 
		81.1,91.9 77.3,95.7 77.3,99.6 69.8,99.6 69.8,95.7 66.1,91.9 62.4,95.7 62.4,114.4 32.4,114.4 32.4,106.9 58.6,106.9 58.6,99.4 
		32.4,99.4 32.4,88.2 28.7,84.4 24.9,88.2 24.9,196.7 28.7,200.4 32.4,196.7 32.4,121.8 32.4,121.8 69.8,121.8 69.8,107.1 
		77.3,107.1 77.3,121.8 114.7,121.8 114.8,121.8 114.8,196.7 118.5,200.4 122.2,196.7 	"/>
	<polygon points="69.8,264.1 73.6,267.8 77.3,264.1 77.3,196.7 69.8,196.7 	"/>
	<polygon points="84.8,181.8 62.4,181.8 62.4,181.7 54.9,181.7 54.9,181.8 54.9,189.2 54.9,241.6 58.6,245.4 62.4,241.6 62.4,189.2 
		84.8,189.2 84.8,241.6 88.6,245.4 92.3,241.6 92.3,189.2 92.3,181.8 92.3,181.7 84.8,181.7 	"/>
	<polygon points="99.8,219.2 103.5,222.9 107.3,219.2 107.3,166.8 99.8,166.8 	"/>
	<polygon points="39.9,219.2 43.6,222.9 47.4,219.2 47.4,166.8 39.9,166.8 	"/>
	<polygon points="69.8,151.8 69.8,166.8 62.4,166.8 62.4,174.3 84.8,174.3 84.8,166.8 77.3,166.8 77.3,151.8 	"/>
</g>
<g>
	<g>
		<text transform="matrix(1 0 0 1 6.015805e-06 309.5127)"><tspan x="0" y="0" class="st0 st1 st2">CASTL</tspan><tspan x="125.3" y="0" class="st0 st1">E</tspan></text>
	</g>
	<g>
		<text transform="matrix(1 0 0 1 14.8154 347.4209)"><tspan x="0" y="0" class="st0 st1 st2">THIN</tspan><tspan x="94.2" y="0" class="st0 st1">K</tspan></text>
	</g>
</g>
</svg>
